<?xml version="1.0" encoding="utf-8"?>
<!-- Generator: Adobe Illustrator 25.4.1, SVG Export Plug-In . SVG Version: 6.00 Build 0)  -->
<svg version="1.1" id="圖層_1" xmlns="http://www.w3.org/2000/svg" xmlns:xlink="http://www.w3.org/1999/xlink" x="0px" y="0px"
	 viewBox="0 0 97.4 68.3" style="enable-background:new 0 0 97.4 68.3;" xml:space="preserve">
<style type="text/css">
	.st0{clip-path:url(#SVGID_00000121279486355493159650000005731310492814512552_);}
	.st1{fill:#043A2C;}
	.st2{fill:#73871E;}
	.st3{fill:#FCD400;}
	.st4{clip-path:url(#SVGID_00000096019280237290261660000015904604017649422012_);}
	.st5{fill:#FFFFFF;}
	.st6{fill:#996D1D;}
	.st7{fill:#E2B705;}
	.st8{clip-path:url(#SVGID_00000063609607353212438320000004203648036773168805_);}
	.st9{fill:#D3AA00;}
	.st10{fill:#ED9AAE;}
</style>
<g>
	<g>
		<defs>
			<rect id="SVGID_1_" x="-0.1" y="0" width="97.5" height="68.4"/>
		</defs>
		<clipPath id="SVGID_00000115498503251068601220000002076403484421931412_">
			<use xlink:href="#SVGID_1_"  style="overflow:visible;"/>
		</clipPath>
		<g style="clip-path:url(#SVGID_00000115498503251068601220000002076403484421931412_);">
			<path id="Path_969" class="st1" d="M22.3,27.4c0,1.4,0,2.8-0.1,4.1c-0.2,3.9-1.1,7.6-1.8,11c0,0,0,0,0.1,0c0.6-1,1.1-2,1.4-3.1
				c0.4-1.1,0.7-2.3,0.9-3.4c0.4-2.3,1.1-4.5,1.9-6.7c0.9-2,2.2-3.8,3.7-5.4c1.4-1.6,3-3.2,4.7-4.5c0.3,0.4,0.6,0.7,0.9,1.1
				c-1.9,1.6-3.5,3.4-4.8,5.5c-1.4,2.1-2.5,4.5-3.2,7c-0.3,1.3-0.6,2.7-0.9,4c-0.2,1.3-0.5,2.7-1,3.9c-0.5,1.1-1.2,2.2-2.1,3.1
				c-0.8,1-1.7,1.8-2.8,2.5c0.2,1.5,0.3,3.1,0.6,4.5c0.2,1.4,0.7,2.7,1.1,3.9c0.7,2.8,0.7,5.7,0.7,8.5c-0.5,0.1-1.1-0.1-1.6-0.2
				c-0.2-2.4-0.8-4.8-1.6-7.1c-0.4-1-0.8-2.1-1.1-3.2c-0.4-1.7-0.6-3.9-0.9-5.8c-3.1-0.4-4.4-3-5.9-5.7c-0.9-1.5-1.7-3.1-2.6-4.6
				s-1.9-3-2.6-4.5c-0.9-1.7-1.5-3.4-2.3-5c0.7-0.5,1.5-0.9,2.2-1.3c1.3,3.2,3.1,6,4.6,8.9c1.1,2.2,2.6,4.2,3.8,6.2
				c0.3,0.7,0.8,1.4,1.3,2c-1.7-4.7-4.7-8.1-6.5-12.9c-1-2.5-1.7-5-2.4-7.6c-0.7-2.7-1.1-5.5-1.8-8.4c0.4-0.2,1-0.3,1.4-0.4
				c0.7,2.5,1,5,1.5,7.3c0.5,2.2,1.3,4.3,2.3,6.3c1.9,3.9,3.7,7.5,5.6,11.2c-1.2-4.1-2.3-8.2-3.1-12.4c-0.8-4.5-1.1-9.3-1.9-14.1
				c0.5,0,0.9,0,1.4,0c0.9,5,1.7,9.9,2.6,14.6c1,4.8,2.5,8.9,3.4,13.7c0-4.9-0.7-10-1.1-15.1c-0.4-5.1-0.7-10-1-14.9
				c0.5,0,1,0,1.4,0c0.2,3.9,0.6,7.9,1.1,12c0.1,1.3,0.2,2.7,0.4,4.1c0.6,5.4,0.4,10.6,0.7,15.4c0.8-4.9,0.8-10.1,1.1-15.3
				s0.7-10.3,1.4-15.1c0.7,0,1.3,0.2,2,0.4C22.6,16.5,22.4,22,22.3,27.4z"/>
			<path id="Path_970" class="st1" d="M89.1,49.4c0,1.3-0.2,2.7-0.4,4c-0.2,1.2-0.5,2.4-0.8,3.4c-0.3,1.1-0.7,2.1-1.2,3.1
				c0,0,0,0,0,0c0.6-0.6,1.2-1.1,1.8-1.6c0.6-0.5,1.3-0.8,2.1-1.2c0.7-0.4,1.2-1,1.8-1.6c0.5-0.7,0.9-1.3,1.3-2.1
				c0.3,0.2,0.6,0.4,0.9,0.6c-0.5,1-1,1.9-1.7,2.5c-0.7,0.7-1.7,1.1-2.5,1.7c-0.8,0.6-1.6,1.2-2.3,1.9c-0.9,0.9-1.2,2.2-2.4,2.7
				c0,1.2-0.3,2.2-0.4,3.4c-0.5,0-1-0.1-1.5-0.2c0-1.1,0.1-2.1,0.3-3.2c-0.1-0.2-0.4-0.4-0.5-0.6c-0.2-0.4-0.4-0.8-0.7-1.1
				c-0.3-0.4-0.7-0.7-1.1-1.1c-0.4-0.3-0.7-0.8-1-1.1c-0.5-0.9-1-1.9-1.3-2.9c-0.7-2-1.8-3.7-2.6-5.7c0.3-0.1,0.5-0.3,0.8-0.4
				c1,1.7,1.9,3.4,2.6,5.2c0.3,0.9,0.8,1.8,1.3,2.5c0.5,0.5,1,1,1.5,1.4c0.1,0.1,0.3,0.3,0.6,0.4c-0.4-2.2-0.9-4.1-1.4-6
				c-0.6-2.1-1-4.3-1-6.5c0.2-0.1,0.5-0.1,0.7-0.2c0.4,2,0.6,4.1,1.1,6c0.4,1.9,1,3.6,1.8,5.4c0-2.2,0.3-4.2,0.4-6.3
				c0-2.1,0-4.2,0.2-6.4c0.3-0.1,0.6,0,0.9-0.1c0.1,1,0.1,2,0.1,3c0,1,0.1,2,0.1,3c0.1,2.1-0.2,4.2-0.4,6.3c0.4-1.9,1.3-3.8,1.6-5.9
				c0.4-2.2,0.6-4.4,1-6.6c0.2,0,0.4,0.1,0.7,0.1C89.4,46.7,89.2,48.1,89.1,49.4z"/>
			<g id="Group_382">
				<path id="Path_971" class="st2" d="M25.5,65c-1,0-1.1-4.1,0.1-3.8C26.6,61.4,26.2,65,25.5,65z"/>
				<path id="Path_972" class="st2" d="M22.7,67.1c-0.7,0-0.8-2.7,0-2.6C23.5,64.7,23.4,67.1,22.7,67.1z"/>
			</g>
			<g id="Group_383">
				<path id="Path_973" class="st2" d="M51.9,62.8c-1,0-1.1-4.1,0.1-3.8C53,59.1,52.7,62.8,51.9,62.8z"/>
				<path id="Path_974" class="st2" d="M49.1,64.9c-0.7,0-0.8-2.7,0-2.6C49.8,62.4,49.8,64.9,49.1,64.9z"/>
				<path id="Path_975" class="st2" d="M53.1,64.3c0,0.7,0.2,2.1-0.4,2.2c-0.9,0.1-0.7-2.2-0.2-2.4C52.8,64,53,64.1,53.1,64.3z"/>
			</g>
			<g id="Group_384">
				<path id="Path_976" class="st2" d="M61.2,65.7c-0.9,0.2-1.1-2.8-0.2-2.4C61.5,63.4,61.9,65.6,61.2,65.7z"/>
				<path id="Path_977" class="st2" d="M59.3,68.2c-0.9,0-0.9-2.5,0.1-2.2C60.1,66.3,59.9,68.2,59.3,68.2z"/>
			</g>
			<g id="artboard_21">
				<g id="Group_877">
					<path id="Path_978" class="st3" d="M36.1,30.7l-0.4,0.8c-2.3,4.9-5,8.7-8.9,12c-2,1.7-4.2,3.1-6.5,4.3
						c-3.5,1.8-7.7,3.5-12.9,3.4c-1.4,0-3.6-0.3-3.7-1.3c0-0.7,0.5-0.9,1.4-1.1c2.3-0.6,4.6-0.9,6.6-1.4c5-1.3,9.6-3.9,13.3-7.5
						c1.7-1.7,3.2-3.5,4.5-5.5c0.5-0.7,1-1.5,1.4-2.2C32.8,32.1,34.5,31.7,36.1,30.7z"/>
					<g id="Group_393">
						<g id="Group_392">
							<g>
								<g>
									<defs>
										<path id="SVGID_00000005951516786416587150000006433966004993437060_" d="M3.6,49.9c0,1,2.3,1.3,3.7,1.3
											c5.2,0.1,9.4-1.6,12.9-3.4c2.3-1.1,4.5-2.6,6.5-4.3c3.9-3.3,6.6-7.2,8.9-12c1.1-2.3,2.2-4.7,3.5-6.8
											c0.8-1.2,1.6-2.3,2.5-3.4c-1-0.6-1.7-1.3-2.3-2.2c-4.1,4.4-6.4,10.2-9.8,15.2c-1.3,2-2.9,3.9-4.5,5.6
											c-3.7,3.6-8.3,6.3-13.3,7.5c-2,0.5-4.3,0.9-6.6,1.4C4.1,49.1,3.6,49.2,3.6,49.9z"/>
									</defs>
									<clipPath id="SVGID_00000139256813683970194640000017694799669478830778_">
										<use xlink:href="#SVGID_00000005951516786416587150000006433966004993437060_"  style="overflow:visible;"/>
									</clipPath>
									<g style="clip-path:url(#SVGID_00000139256813683970194640000017694799669478830778_);">
										<g id="Group_391">
											<g id="Group_390">
												<g id="Group_385">
													<path id="Path_979" class="st5" d="M15.3,48.9c0.1-0.6,0.8-0.8,1.3-0.6c1.2,0.4,2,2.8,0.1,2.8
														C16.3,50.4,15,50.2,15.3,48.9z"/>
													<path id="Path_980" class="st6" d="M17,50.3c0-0.3-0.3-0.6-0.5-0.9c-0.3-0.8-0.4-2.2,0-2.5c1-0.8,2,1,1.6,2.1
														c0.8,0.2,2,0.3,2,1.3c0,0.8-1.1,1-1.9,0.7c0,0.9,0.1,2-1,1.9C16.4,52.4,17.1,50.9,17,50.3z"/>
													<path id="Path_981" class="st6" d="M15.3,50.6c-1.3,0.3-1.8-2.5-0.2-2C15.8,48.8,16.2,50.4,15.3,50.6z"/>
												</g>
												<g id="Group_386">
													<path id="Path_982" class="st5" d="M30.4,36c0.3,2.1-3.3,3.5-3.3,0.9v0c0.1-1.1,1.1-1.8,2.1-1.7
														C29.9,35.2,30.3,35.4,30.4,36z"/>
													<path id="Path_983" class="st6" d="M26,36.9c-0.3-2.1,1.9-1.8,1.7,0.4c0.9,0.2,2.2,0.1,2.3,1.1c0,0.4-0.4,0.8-1.1,1
														c-1.1,0.2-2.7-0.1-2.8-0.9C26.4,37.9,26.1,37.5,26,36.9z"/>
												</g>
												<g id="Group_387">
													<path id="Path_984" class="st5" d="M24.6,46.3c0,0-0.1,0-0.1,0.1c-0.5,0.2-1.1,0.1-1.3-0.4c-0.3-1,0.5-2.2,1.4-2
														C25.4,44.3,25.2,45.9,24.6,46.3z"/>
													<path id="Path_985" class="st6" d="M25.2,42c1.1-0.4,0.9,0.9,1.1,1.6c0.1,0.4,0.4,0.8,0.4,1.1c0.1,0.9-0.3,2-1,2.1
														c-0.9,0.1-1.3-0.9-1-2.1c-1.2,0.3-2.4,0.2-2.3-0.9c0.1-0.8,1.5-1.1,2.3-0.8C24.8,42.6,24.8,42.1,25.2,42z"/>
													<path id="Path_986" class="st6" d="M23.7,46.3c1.1,1.1-1.3,1.6-1.4,0.3c0-0.5,0.4-0.6,0.8-0.6
														C23.4,46.1,23.5,46.2,23.7,46.3z"/>
												</g>
												<g id="Group_388">
													<path id="Path_987" class="st5" d="M37.2,30.1c0.2,0.5,0.2,1.1,0,1.7c-0.4,0.9-2.1,1.4-2.3,0.1c0-0.2,0-0.4,0-0.6
														C35.6,31,36.4,30.6,37.2,30.1L37.2,30.1C37,30.3,37,30.3,37.2,30.1z"/>
													<path id="Path_988" class="st6" d="M38.6,29.1c0.3,1.1,0,2.6-0.4,2.8c-0.8,0.3-1.2-0.4-1.2-1.2c-0.2,0.1-0.5,0.1-0.7,0
														c0.7-0.4,1.3-0.9,1.9-1.4C35.9,31.3,37.8,29.6,38.6,29.1L38.6,29.1z"/>
													<path id="Path_989" class="st6" d="M35.7,33.9c-1.2,0.5-2.1-1.9-0.6-1.6C35.9,32.3,36.5,33.5,35.7,33.9z"/>
												</g>
												<g id="Group_389">
													<path id="Path_990" class="st5" d="M9.6,50.5c-1,0.8-2.9-0.3-2-1.6c0.5-0.3,1.1-0.5,1.7-0.5
														C10.5,48.6,10.1,50.1,9.6,50.5z"/>
													<path id="Path_991" class="st6" d="M7.5,47c1.1-0.2,0.9,1.6,0.5,2.3c0.7,0.8,0.8,2.9-0.4,3c-1,0.1-2-1.9-1.9-2.6
														c0.1-0.6,0.6-0.6,1.1-0.9C6.8,48.1,6.9,47.1,7.5,47z"/>
													<path id="Path_992" class="st6" d="M9.4,49.9c-0.7-0.5,0-1.4,0.5-1.3C11,48.8,10.2,50.5,9.4,49.9z"/>
												</g>
											</g>
										</g>
									</g>
								</g>
							</g>
						</g>
					</g>
					<g id="Group_428">
						<g id="Group_416">
							<path id="Path_994" class="st7" d="M28.2,57.3c0.2,1.7,0.5,3.3,0.9,5c0.2,1.1,0.7,2.2,1.2,3.2c0.2,0.3,0.4,0.7,0.7,0.7
								c0.5,0,0.6-0.5,0.8-0.9c0.2,0.3,0.4,0.9,0.8,0.9s0.6-0.5,0.7-0.9c0.2,0.2,0.3,0.8,0.8,0.7c0.7-0.1,0.6-1.6,0.6-2.5
								c0-0.5,0-1,0-1.6c0-0.6,0-1.1,0-1.6c0-1.9,0.2-3.8,0.7-5.7c0.4-1.6,0.9-3.3,1.6-4.8c0.6-1.4,1.3-2.8,2.2-4.1
								c-0.1,1.9-0.1,3.8,0,5.7c0.1,1.7,0.4,3.4,0.7,5.2c0.4,2.4,1,4.7,1.8,7c0.1,0.3,0.3,0.7,0.4,1c0.1,0.3,0.4,0.7,0.7,0.7
								c0.4,0,0.5-0.4,0.5-0.9c0.2,0.2,0.3,0.9,0.8,0.9c0.4,0,0.4-0.6,0.4-1.1c0.2,0.2,0.3,0.8,0.7,0.8s0.4-0.6,0.4-1.1
								c0-0.4-0.1-0.9-0.1-1.3c-0.3-2.7-0.3-5.5,0-8.3c0.2-1.6,0.6-3.2,1-4.8c0.3-1.4,1-2.8,1.8-3.9c1.3,0.3,2.5,0.6,3.7,1
								c1.1,0.4,2.3,0.8,3.4,1.2c1.5,0.6,3.3,1.4,4.6,2.4c0.2,0.2,0.4,0.3,0.6,0.6c0.9,1,1.2,2.7,1.4,4.5c0.2,1.4,0.3,2.9,0.5,4.4
								c0.1,1.4,0.3,2.8,0.6,4.3c0.1,0.7,0.2,1.2,0.4,2c0,0.3,0.1,0.6,0.2,1c0.1,0.3,0.2,0.8,0.6,0.7c0.3-0.1,0.4-0.6,0.5-1
								c0.1,0.1,0.1,0.2,0.2,0.4c0.1,0.2,0.3,0.8,0.7,0.7c0.3,0,0.4-0.5,0.5-0.9c0.1,0.2,0.2,0.3,0.3,0.5c0.1,0.1,0.3,0.4,0.6,0.4
								s0.4-0.4,0.4-0.9s0-0.9,0-1.3c0-0.9,0-1.8,0-2.6c0-1.6,0.1-3.4,0.2-5c0.1-2.3,0.3-4.8,1-6.7c0.1-0.6,0.5-1.2,0.9-1.7
								c0.5-0.4,1.6-0.5,2.4-0.3c0.4,0.1,0.7,0.2,1,0.5c0.8,0.7,1,2,1.1,3.4c0.1,1,0.1,2,0.1,2.9c0.1,2,0.2,3.8,0.4,5.7
								c0.1,1.3,0.2,2.7,0.5,4c0.1,0.4,0.2,0.9,0.6,0.9s0.4-0.4,0.5-0.7c0.1,0.2,0.1,0.5,0.2,0.7c0.1,0.2,0.2,0.6,0.6,0.5
								s0.5-0.8,0.6-1.1c0.2,0.3,0.3,1,0.7,1c0.3,0,0.4-0.5,0.4-0.8c0-1.1,0-2.3,0-3.5c-0.1-1.7,0-3.2,0-4.8c0-1.6,0.1-3.1,0.2-4.6
								c0.1-1.5,0.3-3,0.5-4.4c0.2-1.4,0.4-2.8,0.6-4.3c0.3-2.2,0.6-4.2,0.8-6.5c0-0.8,0.1-1.5,0.1-2.3c0-1.5-0.1-3-0.5-4.4
								c0,0,0.1,0,0.1,0h0c-0.8-0.8-19-10.5-19-10.4c-1.6-0.2-3.4-0.4-5.2-0.5c-0.9,0-1.8-0.1-2.7-0.2c-3.1-0.1-6.2,0.1-9.2,0.9
								c-0.4,0.1-0.8,0.2-1.1,0.3c-4.3,1.2-9.9,5.7-12,10.6c-0.3,0.7-0.6,1.3-0.9,2.1c-1.3,3.9-2.2,7.9-2.5,12
								C27.7,49.9,27.8,53.6,28.2,57.3z"/>
							<g id="Group_411">
								<g id="Group_410">
									<g>
										<g>
											<defs>
												<path id="SVGID_00000053515253523945290640000009710963032978467227_" d="M28.2,57.3c0.2,1.7,0.5,3.3,0.9,5
													c0.2,1.1,0.7,2.2,1.2,3.2c0.2,0.3,0.4,0.7,0.7,0.7c0.5,0,0.6-0.5,0.8-0.9c0.2,0.3,0.4,0.9,0.8,0.9s0.6-0.5,0.7-0.9
													c0.2,0.2,0.3,0.8,0.8,0.7c0.7-0.1,0.6-1.6,0.6-2.5c0-0.5,0-1,0-1.6c0-0.6,0-1.1,0-1.6c0-1.9,0.2-3.8,0.7-5.7
													c0.4-1.6,0.9-3.3,1.6-4.8c0.6-1.4,1.3-2.8,2.2-4.1c-0.1,1.9-0.1,3.8,0,5.7c0.1,1.7,0.4,3.4,0.7,5.2c0.4,2.4,1,4.7,1.8,7
													c0.1,0.3,0.3,0.7,0.4,1c0.1,0.3,0.4,0.7,0.7,0.7c0.4,0,0.5-0.4,0.5-0.9c0.2,0.2,0.3,0.9,0.8,0.9c0.4,0,0.4-0.6,0.4-1.1
													c0.2,0.2,0.3,0.8,0.7,0.8s0.4-0.6,0.4-1.1c0-0.4-0.1-0.9-0.1-1.3c-0.3-2.7-0.3-5.5,0-8.3c0.2-1.6,0.6-3.2,1-4.8
													c0.3-1.4,1-2.8,1.8-3.9c1.3,0.3,2.5,0.6,3.7,1c1.1,0.4,2.3,0.8,3.4,1.2c1.5,0.6,3.3,1.4,4.6,2.4
													c0.2,0.2,0.4,0.3,0.6,0.6c0.9,1,1.2,2.7,1.4,4.5c0.2,1.4,0.3,2.9,0.5,4.4c0.1,1.4,0.3,2.8,0.6,4.3
													c0.1,0.7,0.2,1.2,0.4,2c0,0.3,0.1,0.6,0.2,1c0.1,0.3,0.2,0.8,0.6,0.7c0.3-0.1,0.4-0.6,0.5-1c0.1,0.1,0.1,0.2,0.2,0.4
													c0.1,0.2,0.3,0.8,0.7,0.7c0.3,0,0.4-0.5,0.5-0.9c0.1,0.2,0.2,0.3,0.3,0.5c0.1,0.1,0.3,0.4,0.6,0.4s0.4-0.4,0.4-0.9
													s0-0.9,0-1.3c0-0.9,0-1.8,0-2.6c0-1.6,0.1-3.4,0.2-5c0.1-2.3,0.3-4.8,1-6.7c0.1-0.6,0.5-1.2,0.9-1.7
													c0.5-0.4,1.6-0.5,2.4-0.3c0.4,0.1,0.7,0.2,1,0.5c0.8,0.7,1,2,1.1,3.4c0.1,1,0.1,2,0.1,2.9c0.1,2,0.2,3.8,0.4,5.7
													c0.1,1.3,0.2,2.7,0.5,4c0.1,0.4,0.2,0.9,0.6,0.9s0.4-0.4,0.5-0.7c0.1,0.2,0.1,0.5,0.2,0.7c0.1,0.2,0.2,0.6,0.6,0.5
													s0.5-0.8,0.6-1.1c0.2,0.3,0.3,1,0.7,1c0.3,0,0.4-0.5,0.4-0.8c0-1.1,0-2.3,0-3.5c-0.1-1.7,0-3.2,0-4.8
													c0-1.6,0.1-3.1,0.2-4.6c0.1-1.5,0.3-3,0.5-4.4c0.2-1.4,0.4-2.8,0.6-4.3c0.3-2.2,0.6-4.2,0.8-6.5c0-0.8,0.1-1.5,0.1-2.3
													c0-1.5-0.1-3-0.5-4.4c0,0,0.1,0,0.1,0h0c-0.8-0.8-19-10.5-19-10.4c-1.6-0.2-3.4-0.4-5.2-0.5c-0.9,0-1.8-0.1-2.7-0.2
													c-3.1-0.1-6.2,0.1-9.2,0.9c-0.4,0.1-0.8,0.2-1.1,0.3c-4.3,1.2-9.9,5.7-12,10.6c-0.3,0.7-0.6,1.3-0.9,2.1
													c-1.3,3.9-2.2,7.9-2.5,12C27.7,49.9,27.8,53.6,28.2,57.3z"/>
											</defs>
											<clipPath id="SVGID_00000052067920437402176140000013486905501972369540_">
												<use xlink:href="#SVGID_00000053515253523945290640000009710963032978467227_"  style="overflow:visible;"/>
											</clipPath>
											<g style="clip-path:url(#SVGID_00000052067920437402176140000013486905501972369540_);">
												<g id="Group_409">
													<g id="Group_408">
														<path id="Path_995" class="st6" d="M65,58c0,0.3,0.1,1-0.2,1.3c-0.4,0.3-0.9,0-1.1-0.7c-0.1-0.6-0.2-1.3,0-2
															c0-0.1,0.2-0.3,0.3-0.5c0.1-0.3,0.1-0.6,0.2-0.8c0.4-0.5,1.1-0.6,1.7-0.4c0.4,0.2,0.6,0.7,0.4,1.1
															c-0.4,0.7-0.8,0.2-1.4,0.5C64.9,57.1,65,57.6,65,58z"/>
														<g id="Group_394">
															<path id="Path_996" class="st5" d="M76,44.4c0,1.2-2.2,1.3-2.5,0.3c-0.3-1,0.4-1.7,1.7-1.3
																C75.7,43.6,76,43.9,76,44.4z"/>
															<path id="Path_997" class="st6" d="M75.9,41.5c0.9-0.1,1.4,1.1,1.1,2.2c0.3,0.3,0.6,0.5,0.7,1c0.3,2.1-3.3,2.9-2.4,0
																C74.5,43.8,74.6,41.5,75.9,41.5z"/>
															<path id="Path_998" class="st6" d="M73.5,45.5c-0.9,0-1.3-2-0.1-1.7C74.2,43.9,74.5,45.4,73.5,45.5z"/>
														</g>
														<g id="Group_395">
															<path id="Path_999" class="st5" d="M36.4,39.7c-0.2,0.9-2.6,1.1-2.8-0.1c-0.1-1,0.9-1.3,2.1-1
																C36.2,38.8,36.6,38.9,36.4,39.7z"/>
															<path id="Path_1000" class="st6" d="M36,40.4c0.6,1.7-1.6,2.2-2.6,1.6c-0.5-0.5-0.9-1.2-1.1-1.9
																c-0.2-1.1,0.3-2.4,1-2.6c1.4-0.3,1.1,1.1,0.8,1.9C35.1,39.7,35.7,39.9,36,40.4z"/>
														</g>
														<g id="Group_396">
															<path id="Path_1001" class="st5" d="M56.4,24.9c0.1,1.8-3.1,1.5-3-0.1c0-0.8,0.7-1.2,2-0.9
																C56,24,56.4,24.3,56.4,24.9z"/>
															<path id="Path_1002" class="st6" d="M54.7,23.4c0,0.6-0.6,0.7-0.6,1.1c0.1,0.1,0.2,0.2,0.3,0.4
																c0.2,0.3,0.3,0.8,0.2,1.2c-0.3,1.2-1.8,0.1-2.2-0.3c-0.4-0.3-1-0.9-1-1.5c0-0.6,0.9-1,1.6-0.7
																C53.2,22.6,54.6,22.5,54.7,23.4z"/>
															<path id="Path_1003" class="st6" d="M56.3,24.1c0.4-1,2.4-1.1,2,0.7c-0.1,0.3-0.5,0.4-0.6,0.8
																c0.2,1.3-0.1,2.4-1.2,2.3s-1.2-2-1.1-3.3C55.6,24.3,55.7,24,56.3,24.1z"/>
														</g>
														<g id="Group_397">
															<path id="Path_1004" class="st5" d="M56.1,33.2c-0.1,1-0.5,1.8-1.2,1.9c-1,0.2-1.5-0.9-1.5-1.6c0-1.3,1.1-2,1.6-2
																C56.1,31.5,56.3,32.2,56.1,33.2z"/>
															<path id="Path_1005" class="st6" d="M56.2,31.3c0.4,0.3,0.8,0.6,0.7,1c-0.1,0.8-1.1,0.4-1.8,0.2
																c-0.7-0.2-1.4-0.6-1.3-1.3c0.1-0.6,0.6-0.6,1.1-0.5C55.3,30.8,55.8,31,56.2,31.3z"/>
															<path id="Path_1006" class="st6" d="M54.3,36.6c-0.4,0-0.8,0-1.2,0c-1.2-0.2-2.6-3.5-0.7-3.8c1-0.1,1.5,1,2.2,1.7
																c0.5-0.5,1.1-0.7,1.8-0.5C57.3,35,55.4,36.4,54.3,36.6z"/>
														</g>
														<g id="Group_398">
															<path id="Path_1007" class="st5" d="M65.8,43.9c-0.2,1.4-2.5,0.9-2.7-0.4c0-0.4,0.1-0.9,0.4-1.2
																C64.8,42,66,42.8,65.8,43.9z"/>
															<path id="Path_1008" class="st6" d="M64.3,42.6c0,0.7-0.9,1.2-1.6,1C61.6,42.2,64.2,41.1,64.3,42.6z"/>
															<path id="Path_1009" class="st6" d="M66.6,43.5c0.1-0.1,0.6,0,0.8,0c1,1,0,3.8-1.5,2.9c-0.5,0.9-2.9,2-3,0.3
																c-0.1-0.8,0.5-1.7,1.1-2.2c0.5-0.4,1.1-0.4,1.5-0.7C64.3,42.2,66.7,41.4,66.6,43.5z"/>
														</g>
														<g id="Group_399">
															<path id="Path_1010" class="st5" d="M44.4,37.1c-0.6,0.1-1.3,0-1.6-0.3c-1.1-1.5,2.9-2.5,3.4-1
																C45.8,36.5,45.2,37,44.4,37.1z"/>
															<path id="Path_1011" class="st6" d="M45.5,33.6c0.7-1.2,2.2,0,1.6,1.2c0.4,0.5,1,0.8,1.1,1.6
																c0.2,1.8-1.8,3.8-2.4,1.8c-0.3,0.4-0.5,1-1.2,0.8c-1.5-0.4,0.9-3,0.7-3.3c-0.9,0-1.7-0.3-1.5-1.2
																c0.3-0.4,1.1-0.2,1.5-0.2C45.3,34,45.5,33.9,45.5,33.6z"/>
															<path id="Path_1012" class="st6" d="M41.9,36.1c0.9-0.9,1.8,0.4,1.7,1.6C42.8,38.9,41.4,37.4,41.9,36.1z"/>
														</g>
														<g id="Group_400">
															<path id="Path_1013" class="st5" d="M72.2,36.3c1.4-0.1,2.1,1.5,2,2.2c-0.2,0.6-0.8,0.9-1.3,0.9
																c-0.7-0.1-1.5-1.2-1.5-1.9c0-0.1,0-0.3,0.1-0.5C71.6,36.7,71.8,36.4,72.2,36.3z"/>
															<path id="Path_1014" class="st6" d="M70.7,38.1c-0.9-0.4,0-2,0.7-2.1c-0.4-0.3-0.5-0.9-0.2-1.4
																c0.4-0.4,1.3,0,1.5,0.4c0.7-0.2,2-0.3,2.3,0.4c0.6,1.3-1.3,2.4-2.7,1.7C71.8,37.4,71.6,38.4,70.7,38.1z"/>
															<path id="Path_1015" class="st6" d="M74.5,39c0,1.1-2.9,1.6-2.3,0C72.5,38.2,74.6,37.8,74.5,39z"/>
														</g>
														<g id="Group_401">
															<path id="Path_1016" class="st5" d="M36.1,33.4c-0.7,0.2-1.3-0.1-1.6-0.8c-0.3-1.1,0.7-2.1,2-2c0,0,0.1-0.1,0.1,0
																C37.5,31.3,36.9,33.2,36.1,33.4z"/>
															<path id="Path_1017" class="st6" d="M39.3,29.5c0.1,0.6-0.6,1-0.7,1.6c0,0.2,0.1,0.5,0.1,0.7c0,0.7-0.2,1.3-0.6,1.4
																c-1.2,0.4-1.3-0.8-1.6-1.9c-1.1,0-2.5-0.5-2.2-1.6c0.3-1.1,2.5-0.4,3.2,0C37.9,29.1,39.1,28.4,39.3,29.5z"/>
														</g>
														<g id="Group_402">
															<path id="Path_1018" class="st5" d="M64.8,33.4c0.3,0.7,0.2,1.7-0.5,1.8c-0.8,0.1-2-1.1-2.1-1.9
																c-0.1-1.1,0.5-1.3,1.2-1.2C64,32.3,64.5,32.8,64.8,33.4z"/>
															<path id="Path_1019" class="st6" d="M62.9,32.9c-0.4,0.5-1.2,1.1-1.5,0.2c-0.3-1,0.8-1.9,1.5-1.7
																C63.7,31.7,63.2,32.5,62.9,32.9z"/>
															<path id="Path_1020" class="st6" d="M67.7,33.3c0.1,0.9-0.9,1.4-1.4,1.8c-0.3,1-0.5,2.4-1.6,2.5
																c-1.9,0.2-1.3-3-0.3-3.6c-0.2-0.4,0-0.8,0.2-1c0.5-0.2,1.1,0,1.4,0.4C66.2,32.7,67.6,32.4,67.7,33.3z"/>
														</g>
														<g id="Group_403">
															<path id="Path_1021" class="st5" d="M44.1,27.6c-1.8,0.2-1.7-3.1,0.2-2.7C45.6,25.2,45.2,27.4,44.1,27.6z"/>
															<path id="Path_1022" class="st6" d="M46,23c1.2-0.3,1.2,1.3,0.6,2c1,1,1.1,4.4-0.5,4.4c-1.3,0-1.3-2.1-1.3-3.7
																c-0.6-0.5-1.7-0.4-1.7-1.4c0-1.1,1.5-0.9,2.1-0.2C45.4,23.7,45.6,23.1,46,23z"/>
															<path id="Path_1023" class="st6" d="M43.1,28.1c-1.5,0.4-2.6-2.2-0.6-2C43.5,26.2,44.1,27.8,43.1,28.1z"/>
														</g>
														<g id="Group_404">
															<path id="Path_1024" class="st5" d="M32.1,47.6c0.2,0.8-0.3,1.7-0.7,1.8c-1.7,0.5-1.9-3.1-0.1-2.6
																C31.6,47,31.9,47.2,32.1,47.6z"/>
															<path id="Path_1025" class="st6" d="M31.2,47.2c-0.3,0.6-0.6,1.4-1.2,1.3c-1.2-0.1-0.7-3.3,0.9-2.8
																C31.5,46,31.4,46.7,31.2,47.2z"/>
															<path id="Path_1026" class="st6" d="M31.5,48.6c0.1-1,0.6-2.6,1.6-2.2c0.7,0.3,0.3,1.7-0.1,2.2
																c0.4,0.6,1.6,1.5,1.2,2.6c-0.3,1.1-2,0.1-2.3-0.5c-0.4,0.4-1.3,1-2,0.5C29.6,49.7,31,49.4,31.5,48.6z"/>
														</g>
														<g id="Group_405">
															<path id="Path_1027" class="st5" d="M55.1,41.4c0.6-0.2,1.6,0.4,1.9,0.6c0.3,0.2,0.6,0.5,0.9,0.8
																c0.6,0.8,0.6,2.2-0.5,2.2c-0.5,0-1.3-0.4-1.8-0.8c-0.7-0.6-1.1-1.1-1-1.8C54.6,42,54.7,41.5,55.1,41.4z"/>
															<path id="Path_1028" class="st6" d="M51,41.4c-0.3-1.5,2.1-1.4,3-0.7c0.7-1.3,4.2-0.5,3.9,1c-0.2,1.2-2.2,0.2-2.7,0
																c0.2,1.1,0.3,2.9-0.6,3.1c-1.3,0.3-1.6-1.3-1.4-2.5C52.2,42.1,51.2,42,51,41.4z"/>
															<path id="Path_1029" class="st6" d="M59.3,44.5c0.1,1.3-2.5,2-2.2,0.3C57.3,44,59.1,43.2,59.3,44.5z"/>
														</g>
														<g id="Group_406">
															<path id="Path_1030" class="st5" d="M77.7,53.5c-0.2,0.9-0.5,1.7-1.2,1.8c-2,0.1-1-3.6,1-2.9
																C78.2,52.6,77.9,52.9,77.7,53.5z"/>
															<path id="Path_1031" class="st6" d="M75.8,51.8c-0.1-1.3,1.4-1.7,2.2-1c0.3,0.3,0.3,0.7,0.6,0.9
																c0.2-0.3,0.4-0.6,1-0.6c0,0.1,0,0.1,0.1,0.1c0.7,0.7-0.5,1.2-0.7,1.9c-0.1,0.4,0.1,1,0.1,1.5c-0.1,1-0.7,2.1-1.3,2.1
																c-1.4,0-0.9-2.6-0.5-3.5C76.6,53,75.9,52.6,75.8,51.8z"/>
														</g>
														<g id="Group_407">
															<path id="Path_1032" class="st6" d="M32.5,59c-0.6,0.2-1.4,0-1.5-0.5c-0.3-1.1,1.3-2.2,2.1-1.8
																C34,56.9,33.4,58.6,32.5,59z"/>
															<path id="Path_1033" class="st5" d="M32.9,59.8c0,0.4-0.2,0.7-0.6,0.9c-1.3,0.4-3-1.3-2.8-2.5c0-0.1,0.5-0.7,0.7-1.1
																c0.3-0.7,0.2-1.3,0.7-1.5c0.1,0,0.2,0,0.3,0c0.4,0,0.7,0.3,0.7,0.8c0,0.5-0.4,0.8-0.5,1.2
																C32.1,58.5,32.9,58.8,32.9,59.8z"/>
														</g>
														<path id="Path_1034" class="st6" d="M76.1,61.1c-1.1-0.2-0.5-2.6,0.6-2.3C77.9,59,77.2,61.3,76.1,61.1z"/>
													</g>
												</g>
											</g>
										</g>
									</g>
								</g>
							</g>
							<g id="Group_415">
								<g id="Group_412">
									<path id="Path_1036" class="st5" d="M79.8,35.5c0,0.3,0,0.6,0,1c0,0.5,0,1.5-0.4,1.6c-0.6,0.1-0.6-1-0.6-1.7
										c0-0.6,0-2,0.6-1.8C79.7,34.6,79.8,35.1,79.8,35.5z"/>
									<path id="Path_1037" class="st5" d="M77.6,36.8c0.1,0.4,0.1,0.8,0.1,1.2c0,0.4-0.1,0.8-0.4,0.8c-0.4,0-0.5-0.6-0.5-1.1
										c0-0.5,0-1.3,0.5-1.2C77.5,36.5,77.6,36.6,77.6,36.8z"/>
									<path id="Path_1038" class="st5" d="M79.5,39.6c0,0.5,0,1.5-0.4,1.5c-0.2,0-0.3-0.2-0.3-0.5c0-0.5,0.1-1.3,0.4-1.4
										c0,0,0.1,0,0.2,0C79.4,39.3,79.5,39.4,79.5,39.6z"/>
								</g>
								<g id="Group_413">
									<path id="Path_1039" class="st5" d="M69.5,48.4c0,0.1-0.1,0.2-0.2,0.3c-0.2,0.2-0.5,0.3-0.6,0c0-0.2,0-0.4,0.2-0.6
										c0.1-0.2,0.3-0.4,0.6-0.3C69.7,47.9,69.6,48.2,69.5,48.4z"/>
									<path id="Path_1040" class="st5" d="M67.9,50.1c-0.1,0.6-0.4,1.8-1,1.8c-0.6,0-0.5-0.9-0.4-1.3c0.1-0.4,0.3-0.8,0.4-1.2
										c0.1-0.3,0.3-0.6,0.6-0.5C68.1,48.9,68,49.6,67.9,50.1z"/>
								</g>
								<g id="Group_414">
									<path id="Path_1041" class="st6" d="M45.9,47.6c-0.2,0.5-0.4,1.1-0.6,1.6c-0.1,0.3-0.2,0.5-0.6,0.5c-0.3,0-0.5-0.3-0.4-0.7
										c0-0.2,0.1-0.5,0.2-0.8c0.1-0.5,0.3-1,0.6-1.4c0.1-0.2,0.4-0.5,0.7-0.5C46.3,46.5,46,47.2,45.9,47.6z"/>
									<path id="Path_1042" class="st5" d="M43.5,49c0,0.2-0.1,0.4-0.1,0.6c-0.1,0.4-0.1,1-0.5,1c-0.1,0-0.2,0-0.3,0
										c-0.3-0.2,0-0.7,0-1.1c0-0.1,0-0.3,0-0.4c0-0.4,0.2-1,0.6-1C43.6,48.2,43.6,48.6,43.5,49z"/>
									<path id="Path_1043" class="st6" d="M44.3,52.5c0,0.2,0,0.4-0.1,0.6c0,0.4-0.1,1-0.5,1c-0.4,0-0.4-0.6-0.3-1.1
										c0.1-0.5,0-1.6,0.6-1.5C44.4,51.7,44.3,52.2,44.3,52.5z"/>
								</g>
								<path id="Path_1044" class="st9" d="M37.9,47.7c1.4-4.4,8.1-2.4,10.4-2c1.3,0.3,2.5,0.6,3.7,1c1.1,0.4,2.3,0.8,3.4,1.2
									c1.5,0.6,3.3,1.4,4.6,2.4c0.2,0.2,0.4,0.3,0.6,0.6c0.6,0.9,1.1,1.9,1.2,2.9c0,0-0.6-4.5-1.5-6.2c-0.9-1.6-2.5-2.6-4.3-3.5
									c-0.9-0.4-1.7-0.8-2.7-1.2c-1.9-0.8-3.9-1.4-5.8-1.9c-1.1-0.2-2.2-0.4-3.4-0.5c-2.2-0.1-3.5,1-4.4,2.2
									C38.5,44.1,38.1,45.9,37.9,47.7z"/>
							</g>
							<path id="Path_1045" class="st6" d="M42.2,44.5c0.6-0.1,1.3-0.1,2-0.1c2.6,0.1,4.6,1,6.5,1.8c-1-0.2-2-0.5-3.1-0.7
								c-1.1-0.2-2.2-0.4-3.3-0.4c-1.1,0-2.3,0-3.5,0.2c-0.7,0.1-1.5,0.4-2.2,0.7c-0.2,0.1-0.4,0.2-0.7,0.2
								C39.3,45.4,40.7,44.8,42.2,44.5z"/>
							<path id="Path_1046" class="st5" d="M64.7,56.1c1-0.8,1.8,0.7,1.9,1.4c0.1,0.5,0.1,1.6-0.7,2.1c-0.7,0.4-1.1-0.1-1.4-0.7
								C64,58.2,64.1,56.6,64.7,56.1z"/>
						</g>
						<g id="Group_427">
							<g id="Group_425">
								<path id="Path_1047" class="st3" d="M81.8,6.1C82.3,5.4,83.1,5,84,4.9c1.4,0,2.3,1.2,2.5,2.8c0.1,1.9-0.9,3.1-1.8,4
									c0.8,0.7,1.4,1.5,2.5,2.3c0.4,0.3,0.9,0.7,1.4,1c0.4,0.2,1.2,0.6,1.2,1.1c0,0.6-0.9,0.5-1.3,0.4c-0.5-0.1-0.9-0.3-1.3-0.4
									c0.7,0.6,1.4,1.2,2.2,1.7c0.2,0.2,0.6,0.4,0.6,0.8c0,0.6-1,0.4-1.4,0.2c0.4,0.6,0.6,1.2,0.8,1.8c0.2,1.8-0.3,3.6-1.4,5
									c-1,1.2-2.1,2.3-3.3,3.3c-0.6,0.5-1.2,1-1.9,1.4c-2.4,1.4-5.1,2.2-7.9,2.3c-3.3,0-6.7-1-9.5-2.9c-0.6-0.4-1.2-0.9-1.8-1.4
									c-0.6-0.5-1.1-1.1-1.6-1.7c-0.5-0.8-0.9-1.6-1-2.5c-0.1-0.9,0-1.9,0.3-2.7c-0.3,0.2-1.2,0.6-1.3,0.1
									c-0.1-0.4,0.2-0.7,0.4-0.9c0.7-0.6,1.3-1.3,1.8-2.1c-0.4,0.2-0.8,0.5-1.3,0.6c-0.4,0.1-1.2,0.4-1.3-0.1
									c-0.1-0.5,0.7-1,1.1-1.3c1.2-1.2,2.3-2.5,3.2-4c-1.1-0.8-2.4-1.8-2.5-4c0-1.4,0.7-2.7,2.1-2.8c0.9,0,1.7,0.2,2.3,0.8
									c0.6,0.6,1.1,1.2,1.4,2c1.3-1.1,2.9-1.8,4.6-2.1c0.7-0.1,1.4-0.2,2.1-0.2c1.3-0.1,2.6-0.1,3.9,0c1.1,0.1,2.2,0.5,3.1,1
									C80.9,7.6,81.3,6.8,81.8,6.1z"/>
								<path id="Path_1048" class="st7" d="M75,12.4c1.3-0.1,2.7-0.1,4,0.2c2.3,0.5,3.4,2.3,4.4,4.4c0.5,1.1,0.9,2.2,1.1,3.4
									c0.2,1.2,0,2.4-0.6,3.5C82.7,25.8,81,27.2,79,28c-2.5,0.9-5.2,1.1-7.7,0.4c-1.1-0.3-2-0.8-2.9-1.4c-0.4-0.3-0.8-0.6-1.2-1
									c-0.4-0.3-0.7-0.8-1-1.2c-0.5-1.1-0.7-2.4-0.5-3.7c0.1-1.1,0.3-2.3,0.7-3.4c0.3-1,0.8-2,1.5-2.8c0.8-0.8,1.8-1.4,2.9-1.7
									C72.1,12.8,73.6,12.5,75,12.4L75,12.4z"/>
								<path id="Path_1049" class="st10" d="M63.9,9.3C63.9,9.2,63.9,9.2,63.9,9.3c0.2-0.3,0.5-0.4,0.7-0.3
									c0.6,0.4,1.1,1.1,1.3,1.9c0.1,0.3,0.1,0.6,0,1C65.8,12,65.6,12,65.5,12c-0.6,0.2-1.7-0.2-1.8-0.7c-0.1-0.5,0.2-0.6,0.7-0.7
									C64.1,10.2,63.9,9.8,63.9,9.3z"/>
								<path id="Path_1050" class="st10" d="M84.5,10.2c0,0.8-1.1,0.7-1.6,0.5c-0.5-0.1-0.9-0.5-1.1-1c-0.1-0.4,0-0.9,0.3-1.1
									c0.4-0.6,0.9-1.3,1.7-1.4h0c0.4-0.1,0.8,0.1,0.9,0.5c0.2,0.8-0.5,1.5-0.9,1.9C84.1,9.6,84.5,9.8,84.5,10.2z"/>
								<path id="Path_1051" class="st3" d="M72.7,21.3l4.5-0.4l-0.5-9.5l-5.3,0.5L72.7,21.3z"/>
								<g id="Group_421">
									<g id="Group_417">
										<path id="Path_1052" class="st5" d="M77.9,15.3c-0.9,0.9-1.1,2.9-0.8,4.8c0.2,1.4,0.8,1.9,1.7,2.3
											c1.2,0.5,2.5,0.7,3.9,0.5c1.8-0.3,2.5-1.9,1.8-3.7c-0.6-1.4-1.7-2.7-3.1-3.5c-0.8-0.5-1.9-1-2.8-0.8
											C78.4,15.1,78.1,15.2,77.9,15.3z"/>
										<path id="Path_1053" class="st10" d="M79.3,22.4c-0.1,0.3-0.2,0.6-0.2,0.9c0.1,0.7,1.4,0.8,2.3,0.7
											c0.8-0.1,1.7-0.5,1.6-1.4c-0.1-0.8-1.4-0.9-2.3-0.8C80.2,21.8,79.7,22,79.3,22.4z"/>
										<path id="Path_1054" class="st6" d="M79.7,18.4c-0.4,0-0.8,0.6-0.8,1.4s0.3,1.4,0.7,1.4c0.4,0,0.8-0.6,0.8-1.4
											C80.4,19,80.1,18.4,79.7,18.4z"/>
										<path id="Path_1055" class="st6" d="M81.6,17.1c0-0.3-0.1-0.5-0.4-0.6c-0.7-0.4-1.5-0.6-2.3-0.6c-0.3,0-0.5,0.1-0.6,0.4
											l0,0c0,0.2,0.1,0.5,0.4,0.6l2.3,0.6h0C81.4,17.5,81.6,17.3,81.6,17.1z"/>
									</g>
									<g id="Group_418">
										<path id="Path_1056" class="st5" d="M71.2,16c1,0.7,1.5,2.6,1.5,4.6c0,1.4-0.4,2-1.3,2.5c-1.1,0.7-2.4,1.1-3.7,1.1
											c-1.8,0-2.7-1.4-2.3-3.3c0.4-1.5,1.2-2.9,2.4-4c0.7-0.7,1.7-1.3,2.6-1.2C70.6,15.7,70.9,15.8,71.2,16z"/>
										<path id="Path_1057" class="st10" d="M70.8,23.1c0.2,0.2,0.3,0.5,0.3,0.9c0,0.7-1.3,1-2.2,1.1c-0.8,0-1.8-0.1-1.8-1.1
											c0-0.8,1.3-1.1,2.2-1.2C69.9,22.7,70.4,22.8,70.8,23.1z"/>
										<path id="Path_1058" class="st6" d="M69.8,19.3c0.4,0,0.8,0.5,1,1.2c0.1,0.7-0.1,1.4-0.5,1.5c-0.4,0.1-0.8-0.5-1-1.2
											C69.2,20,69.5,19.4,69.8,19.3z"/>
										<path id="Path_1059" class="st6" d="M67.7,18.3c-0.1-0.2,0-0.5,0.2-0.6c0.6-0.5,1.4-0.9,2.2-1c0.2-0.1,0.5,0,0.6,0.2
											c0,0,0,0,0,0c0.1,0.2,0,0.5-0.3,0.6l-2.2,1h0C68.1,18.6,67.8,18.5,67.7,18.3z"/>
									</g>
									<g id="Group_420">
										<path id="Path_1060" class="st9" d="M77,26.8c2.2,0.1,2.7-2.1,2.6-3.7c-0.1-1.1-0.6-2-1.5-2.6c-0.7-0.5-1.6-0.8-2.4-0.8
											c-2.6-0.1-4.8,1.9-5,4.5c0,1.8,1,3.5,2.8,2.9c1-0.3,1.5-1.4,1.7-2.4C75.3,25.5,76.2,26.8,77,26.8z"/>
										<g id="Group_419">
											<path id="Path_1061" class="st6" d="M74.9,22.7c-0.3,0.5-0.1,1.6-0.6,1.9c-0.1-0.2-0.2-0.5-0.5-0.5
												c-0.7,0-0.2,1.1,0.3,1.1c0.5,0,0.9-0.4,1.1-1c0.2,0.1,0.2,0.4,0.5,0.6c0.8,0.4,1.7-0.2,1.2-1c-0.4-0.3-0.8,0-0.9,0.4
												c-0.5-0.3-0.5-1-0.7-1.5H74.9z"/>
											<path id="Path_1062" class="st6" d="M76.4,21.6c1-0.1,0.9-1.5,0.4-2C76,18.5,73.3,19,72.7,20c-0.6,1.1,0.7,2.9,1.4,1.5
												c0.2,0.6,0.4,1.5,1.1,1.4c0.5-0.1,0.5-1,0.6-1.6C76,21.4,76.1,21.6,76.4,21.6z"/>
										</g>
									</g>
								</g>
								<g id="Group_422">
									<path id="Path_1063" class="st6" d="M76.7,10.6c-1,0.1-0.7-1.9,0.1-1.6C77.4,9.2,77.3,10.5,76.7,10.6z"/>
									<path id="Path_1064" class="st6" d="M73.8,9.4c0.7,0.3,1.9,3.3,0.8,3.6c-1.1,0.3-2-2.6-1.3-3.6L73.8,9.4z"/>
									<path id="Path_1065" class="st6" d="M71.6,11.5c-1.1,0.1-1.3-2-0.1-1.8C72.2,9.9,72.5,11.3,71.6,11.5z"/>
								</g>
								<g id="Group_423">
									<path id="Path_1066" class="st6" d="M62.1,25.2c0.6,0,0.9-3.3-0.4-2.4C61.5,23.2,61.4,25.3,62.1,25.2z"/>
									<path id="Path_1067" class="st5" d="M65,26.2c0-0.6-0.2-1.1-0.5-1.5h0l0,0c-0.2,0-0.5,0.1-0.5,0.3c0,0.1,0,0.3,0,0.4
										c0.1,0.5,0.4,1.2,0.8,1.3C64.8,26.6,64.9,26.5,65,26.2z"/>
									<path id="Path_1068" class="st5" d="M63.7,20.6c0.2-0.5,0.2-1.1,0-1.6l0,0c-0.2-0.1-0.5-0.1-0.6,0.1c0,0.1-0.1,0.2-0.1,0.4
										c-0.1,0.5,0,1.2,0.3,1.5C63.4,20.8,63.6,20.7,63.7,20.6z"/>
								</g>
								<g id="Group_424">
									<path id="Path_1069" class="st6" d="M87.7,22.7c-0.1-0.5,0-1.1,0.2-1.6h0l0,0c0.2-0.1,0.5,0,0.6,0.2c0,0.1,0,0.3,0,0.4
										c0,0.5-0.2,1.2-0.6,1.4C88,23,87.8,22.9,87.7,22.7z"/>
									<path id="Path_1070" class="st5" d="M84.9,15.6c-0.3-0.4-0.5-1-0.6-1.5l0,0c0.1-0.2,0.4-0.2,0.6-0.1
										c0.1,0.1,0.2,0.2,0.2,0.3c0.2,0.4,0.4,1.2,0.2,1.5C85.2,15.8,85,15.8,84.9,15.6z"/>
								</g>
							</g>
							<g id="Group_426">
								<path id="Path_1071" class="st5" d="M73.9,29.9c0.6,0,0.9,0,1,0.3c0.2,0.9-2.7,1-2.7,0.3C72.2,29.9,73.2,29.9,73.9,29.9z"/>
								<path id="Path_1072" class="st5" d="M76.2,30.1c0.3-0.3,1.9-0.7,2-0.1s-1.4,0.8-2,0.4C76.2,30.3,76.2,30.2,76.2,30.1z"/>
								<path id="Path_1073" class="st6" d="M76,28.5c-0.1-0.5-1-0.2-1.4,0C74.1,29.5,76.1,29.2,76,28.5z"/>
							</g>
						</g>
					</g>
				</g>
			</g>
		</g>
	</g>
</g>
</svg>
