<?xml version="1.0" encoding="utf-8"?>
<!-- Generator: Adobe Illustrator 25.4.1, SVG Export Plug-In . SVG Version: 6.00 Build 0)  -->
<svg version="1.1" id="圖層_1" xmlns="http://www.w3.org/2000/svg" xmlns:xlink="http://www.w3.org/1999/xlink" x="0px" y="0px"
	 viewBox="0 0 301.9 126.5" style="enable-background:new 0 0 301.9 126.5;" xml:space="preserve">
<style type="text/css">
	.st0{fill:none;}
	.st1{clip-path:url(#SVGID_00000181777101766372821740000001151285295288316850_);fill:#FFCF88;}
	.st2{clip-path:url(#SVGID_00000061448233730861955940000004850619750130448024_);}
	.st3{clip-path:url(#SVGID_00000117668757613868120830000008893908270615907493_);}
	.st4{fill:#559972;}
	.st5{fill:#101111;}
	.st6{fill:#043A2C;}
	.st7{fill:#447762;}
	.st8{fill:#9FC54D;}
</style>
<rect x="431" y="-183.5" class="st0" width="372" height="310"/>
<g>
	<g>
		<defs>
			<path id="SVGID_1_" d="M65.7,60.4c53.1,35.3,119.6,41.3,182.5,51.5c28.1,4.5,60.7,14.1,69.7,41c10.6,31.9-19.3,61.6-29.7,93.6
				c-6.6,20.4-5.7,44.1-18.8,61c-10.6,13.7-28.6,20-45.9,19.9c-17.3-0.2-33.9-6.1-49.7-13.2c-28.1-12.7-54.2-29.2-77.6-49.3
				c-17.4-14.9-33.8-32-54.9-41.1c-17.2-7.4-36.4-8.9-55.1-10.2l-61.6-4.4c-11.2-0.8-22.6-1.6-33-5.9c-20.7-8.5-34.3-29.6-38.6-51.6
				c-4.2-21.9-0.5-44.7,5.3-66.3c9.3-35,33.5-110.7,78.2-115.9C-16.4-36.1,30.4,36.9,65.7,60.4z"/>
		</defs>
		<clipPath id="SVGID_00000052063929697928118470000001148136441582022078_">
			<use xlink:href="#SVGID_1_"  style="overflow:visible;"/>
		</clipPath>
		
			<rect x="-0.2" y="-46.9" style="clip-path:url(#SVGID_00000052063929697928118470000001148136441582022078_);fill:#FFCF88;" width="339.3" height="173.6"/>
	</g>
</g>
<g>
	<g>
		<defs>
			<rect id="SVGID_00000114072450471199406340000015126361000455762107_" x="-0.2" y="14.8" width="61.8" height="111.9"/>
		</defs>
		<clipPath id="SVGID_00000007414818468621728180000010131825173107819702_">
			<use xlink:href="#SVGID_00000114072450471199406340000015126361000455762107_"  style="overflow:visible;"/>
		</clipPath>
		<g style="clip-path:url(#SVGID_00000007414818468621728180000010131825173107819702_);">
			<g id="artboard_31">
				<g>
					<g>
						<defs>
							<rect id="SVGID_00000146492714366725538020000009685108697793935498_" x="-0.2" y="5.6" width="59" height="121.1"/>
						</defs>
						<clipPath id="SVGID_00000010273505241399128620000006768959587977071525_">
							<use xlink:href="#SVGID_00000146492714366725538020000009685108697793935498_"  style="overflow:visible;"/>
						</clipPath>
						<g style="clip-path:url(#SVGID_00000010273505241399128620000006768959587977071525_);">
							<g id="Mask_Group_20">
								<g id="Group_917">
									<g id="Group_908">
										<g id="Group_906">
											<g id="Group_904">
												<path id="Path_1343" class="st4" d="M7.9,41.8c0,0,1.5-7.2,6.7-6.3C14.6,35.5,14.1,41.2,7.9,41.8z"/>
												<path id="Path_1344" class="st4" d="M2.3,31.2c0,0,8.2,3.2,6,10.6C8.3,41.9,1.7,40.3,2.3,31.2z"/>
											</g>
											<g id="Group_905">
												<path id="Path_1345" class="st4" d="M11.5,26.2c0,0,2.6-7-2.4-8.9C9.2,17.3,6.6,22.4,11.5,26.2z"/>
												<path id="Path_1346" class="st4" d="M21.9,20.2c0,0-8.7-1.6-10.7,5.8C11.2,26,17.5,28.2,21.9,20.2z"/>
											</g>
										</g>
										<path id="Path_1347" class="st4" d="M17.2,28.2c0,0-0.7,6.4-7.8,6.4C9.4,34.6,9.4,27.6,17.2,28.2z"/>
										<path id="Path_1348" class="st4" d="M5.3,23.6c0,0,7,3.1,4.5,11C9.8,34.7,1.9,32.2,5.3,23.6z"/>
										<g id="Group_907">
											<path id="Path_1349" class="st4" d="M12,25.3l-0.5-0.2c-0.1,0.1-3.8,10.8-4.6,27.9h0.5C8.1,36.1,12,25.4,12,25.3z"/>
										</g>
									</g>
									<g id="Group_914">
										<g id="Group_909">
											
												<rect id="Rectangle_1426" x="-22.2" y="102.6" transform="matrix(0.5056 -0.8628 0.8628 0.5056 -92.2743 44.9884)" class="st5" width="30.7" height="0.9"/>
										</g>
										<path id="Path_1350" class="st6" d="M21.3,86.4c1.2-3.4,1.7-7,2.4-10.5c0.2-1.5,0.6-2.9,1-4.4c0.4-1.1,0.8-2.1,1.4-3.1
											c1.4-2.6,3-5.1,4.5-7.6c1.9-3.3,3.6-6.9,4.3-10.7c0.8-4.4,0.2-8.9-3.3-12c-1-0.8-2-1.5-3.2-2.1c-2.5-1.2-5.4-1.8-8.2-1.6
											c-2.4,0.1-4.7,1-6.6,2.4c-2.8,2.3-4.2,5.8-5.6,9.1C6.5,49.4,5.4,53,4,56.5c-1.3,3.3-3.1,6.4-5.2,9.3
											c-1.8,2.5-3.6,5-5.1,7.7c-1.3,2.4-2.4,5-2.4,7.8c0.1,2.7,1.5,5,3.6,6.6c3.1,2.3,6.9,3.9,10.7,4.8c3.3,0.7,7,1.1,10.3-0.1
											c1.3-0.5,2.5-1.2,3.4-2.3C20.2,89.1,20.9,87.8,21.3,86.4z"/>
										<g id="Group_910">
											<path id="Path_1351" class="st7" d="M0,90.9c-0.7-3.8,2.4-11.8,9.2-23.6c5-8.8,10.2-16.5,10.3-16.6l0.6,0.4
												C19.8,51.4-0.9,81.9,0.7,90.8L0,90.9z"/>
										</g>
										<g id="Group_911">
											<path id="Path_1352" class="st7" d="M14.2,59.2c-2.3-2.4-1.8-6.9-1.7-7.1l0.7,0.1c0,0.1-0.6,4.4,1.5,6.5L14.2,59.2z"/>
										</g>
										<g id="Group_912">
											<path id="Path_1353" class="st7" d="M3,80.2l0.1-0.7c4.9,0.5,8.4-0.8,10.5-2c1.3-0.7,2.5-1.6,3.5-2.7l0.5,0.4
												C17.6,75.4,12.7,81.1,3,80.2z"/>
										</g>
										<g id="Group_913">
											<path id="Path_1354" class="st7" d="M6.9,71.7c-1.8-1.2-2-3.8-2-4l0.7-0.1c0,0,0.3,2.5,1.8,3.5L6.9,71.7z"/>
										</g>
									</g>
									<g id="Group_915">
										<path id="Path_1355" class="st7" d="M8.4,125.6c-2.4-2.8-1.1-5.7,1.2-8c3.3-3.2,8-5.8,12.4-7.1c5.2-1.6,10.5-3.2,15.9-3.3
											c2.7-0.1,5.3,0,8-0.2c1.2-0.1,2.5,0.4,3.7,0.7c0.6,0.2,1.5,0.2,2,0.5c0.6,0.3,0.2,0.7-0.2,1.1c-1,1.1-1.9,2.2-2.8,3.3
											c-1.4,1.6-3.2,2.7-4.9,4c-3.7,2.9-8.2,5.4-12.3,7.7c-2.2,1.2-4.6,2.2-7,2.9c-2.9,0.8-5.6,1.8-8.6,1.4
											c-0.8-0.1-1.5-0.2-2.4-0.3c-0.6-0.1-1.2-0.3-1.8-0.5C10.3,127.5,9.2,126.5,8.4,125.6z"/>
										<path id="Path_1356" class="st6" d="M15,121.9L15,121.9L15,121.9c0.1,0.1,6.6,2.8,12.2,2c0.1,0,0.1-0.1,0.1-0.2
											c0-0.1-0.1-0.1-0.2-0.1l0,0c-5,0.6-10.7-1.4-11.8-1.9c3.3-1.1,6.6-2.2,9.8-3.3c0.6,0.3,4.8,2.5,8.7,2.1
											c0.1,0,0.2-0.1,0.2-0.2s-0.1-0.2-0.2-0.2c0,0,0,0-0.1,0l0,0c-3.4,0.3-7.2-1.4-8.3-1.9c2.8-1,5.5-2,8.1-2.9
											c0.4,0.2,2.7,1.2,6.5,0.9c0.1,0,0.2-0.1,0.2-0.2c0-0.1-0.1-0.2-0.2-0.2c0,0,0,0-0.1,0c-3.2,0.3-5.3-0.4-6.1-0.7
											c7.4-2.8,12.7-5,12.8-5c0.1,0,0.1-0.1,0.1-0.2c0-0.1-0.1-0.1-0.2-0.1h-0.1c-0.1,0.1-5.5,2.3-12.9,5
											c1.4-3.9,5.3-5.8,5.3-5.8c0.1,0,0.1-0.1,0.1-0.2c0-0.1-0.1-0.1-0.2-0.1h-0.1l0,0c-0.1,0-4.1,2.1-5.5,6.2
											c-2.5,1-5.3,2-8.1,3c1.4-4.9,6-8.3,6.1-8.3c0.1-0.1,0.1-0.1,0.1-0.2c-0.1-0.1-0.1-0.1-0.2-0.1l0,0
											c-0.1,0.1-4.8,3.6-6.2,8.7c-3.2,1.1-6.6,2.3-9.8,3.3c0.4-1.1,3.2-5.2,6.1-8.9c0.1-0.1,0.1-0.2,0-0.2
											c-0.1-0.1-0.2-0.1-0.2,0c0,0,0,0,0,0.1c0,0-1.7,2.1-3.2,4.4c-2.3,3.2-2.8,4.4-2.9,4.8c-2.5,0.8-5,1.6-7.4,2.3
											c-0.1,0-0.1,0.1-0.1,0.2l0,0c0,0.1,0.1,0.1,0.2,0.1C10,123.5,12.5,122.7,15,121.9L15,121.9z"/>
									</g>
									<g id="Group_916">
										<path id="Path_1357" class="st4" d="M5.7,131.4c-5.2-0.1-7.5-3.6-8.3-7.5c-1.1-5.7-0.5-12,1.4-17.1
											c2.1-6.1,4.5-12.2,8.5-17.3c2-2.5,4.2-4.9,6-7.6c0.8-1.2,2.4-2,3.7-2.8c0.6-0.4,1.3-1.2,2-1.4c0.8-0.2,1,0.4,1.1,1.1
											c0.5,1.8,1.1,3.5,1.6,5.2c0.7,2.5,0.6,5.1,0.7,7.7c0.4,5.8-0.1,11.9-0.7,17.5c-0.3,3-1,5.9-2.1,8.8
											c-1.3,3.3-2.4,6.6-5.1,9c-0.7,0.7-1.5,1.2-2.2,1.9c-0.6,0.6-1.3,0.8-1.9,1.3C9.4,131.2,7.4,131.4,5.7,131.4z"/>
										<path id="Path_1358" class="st8" d="M6.7,122.4L6.7,122.4h0.1c0.1-0.1,8.2-3.8,11.8-9.6c0.1-0.1,0-0.2-0.1-0.3l0,0l0,0
											c-0.1-0.1-0.2-0.1-0.3,0.1c-3.2,5.1-10,8.7-11.4,9.3c1.3-3.8,2.6-7.8,3.7-11.7c0.8-0.3,6.7-2.4,9.2-6.3
											c0.1-0.1,0-0.2-0.1-0.3l0,0l0,0c-0.1-0.1-0.2-0.1-0.3,0.1c-2.2,3.4-7.2,5.5-8.7,6.1c1-3.4,2-6.7,2.9-9.8
											c0.6-0.2,3.6-1.5,6.2-5.3c0.1-0.1,0-0.2-0.1-0.3l0,0c-0.1-0.1-0.2-0.1-0.3,0.1c-1.4,2.1-3.3,3.8-5.7,5
											c2.5-9,4.2-15.7,4.2-15.8c0-0.1-0.1-0.2-0.2-0.2c-0.1-0.1-0.2,0-0.2,0.1l0,0l0,0c-0.1,0.1-1.7,6.8-4.2,15.8
											c-2-2.7-3-6.1-2.7-9.5c0-0.1-0.1-0.2-0.2-0.2c-0.1-0.1-0.2,0-0.2,0.1l0,0c-0.4,3.6,0.7,7.2,2.9,10.1
											c-0.8,3.1-1.9,6.4-2.9,9.8c-4.6-5.3-4.9-12.2-4.9-12.2c0-0.1-0.1-0.2-0.2-0.2s-0.2,0.1-0.2,0.1c0,0,0,0,0,0.1
											s0.3,7.3,5.3,12.7c-1.2,3.9-2.4,7.9-3.7,11.7c-1-1.3-3.5-7.1-5.6-12.7c-0.1-0.1-0.2-0.2-0.3-0.2s-0.2,0.1-0.2,0.2v0.1
											c0,0.1,1.2,3.3,2.6,6.5c1.9,4.6,2.8,6.1,3.3,6.5c-1,3-2.1,5.9-3.1,8.5c-0.1,0.1,0.1,0.2,0.1,0.2l0,0
											c0.1,0.1,0.2,0,0.3-0.1C4.6,128.2,5.6,125.3,6.7,122.4L6.7,122.4z"/>
									</g>
								</g>
							</g>
						</g>
					</g>
				</g>
			</g>
		</g>
	</g>
</g>
</svg>
