<?xml version="1.0" encoding="utf-8"?>
<!-- Generator: Adobe Illustrator 25.4.1, SVG Export Plug-In . SVG Version: 6.00 Build 0)  -->
<svg version="1.1" id="圖層_1" xmlns="http://www.w3.org/2000/svg" xmlns:xlink="http://www.w3.org/1999/xlink" x="0px" y="0px"
	 viewBox="0 0 162 329" style="enable-background:new 0 0 162 329;" xml:space="preserve">
<style type="text/css">
	.st0{clip-path:url(#SVGID_00000057112769555562658280000009986996843983401389_);}
	.st1{clip-path:url(#SVGID_00000011024524851862652280000005124915479319110059_);}
	.st2{fill:#043A2C;}
	.st3{fill:#101111;}
	.st4{fill:#559972;}
	.st5{fill:#447762;}
	.st6{fill:#9FC54D;}
</style>
<g>
	<defs>
		<rect id="SVGID_1_" x="54" y="35.5" width="108" height="291"/>
	</defs>
	<clipPath id="SVGID_00000060009582168417129270000013161306501448476330_">
		<use xlink:href="#SVGID_1_"  style="overflow:visible;"/>
	</clipPath>
	<g style="clip-path:url(#SVGID_00000060009582168417129270000013161306501448476330_);">
		<g id="Artboard_3">
			<g>
				<defs>
					<rect id="SVGID_00000168823615815890942300000005503203924835904146_" x="36" y="35.5" width="126" height="291"/>
				</defs>
				<clipPath id="SVGID_00000150076209779723124870000009525131285837954715_">
					<use xlink:href="#SVGID_00000168823615815890942300000005503203924835904146_"  style="overflow:visible;"/>
				</clipPath>
				<g style="clip-path:url(#SVGID_00000150076209779723124870000009525131285837954715_);">
					<g id="Mask_Group_14">
						<g id="Group_866">
							<g id="樹葉">
								<g id="Group_856">
									<g id="Group_854">
										<g id="Group_852">
											<path id="Path_1299" class="st2" d="M89.3,94.6c8.9-8,20.3,4.2,20.3,4.2C96.8,105,89.3,94.6,89.3,94.6z"/>
											<path id="Path_1300" class="st2" d="M109,99.4c-13-11.5-1-27.5-1-27.5C119.8,88.7,108.9,99.4,109,99.4z"/>
										</g>
										<g id="Group_853">
											<path id="Path_1301" class="st2" d="M78.3,53.1C71,62.7,84.2,73,84.2,73C89.3,59.8,78.3,53.1,78.3,53.1z"/>
											<path id="Path_1302" class="st2" d="M84.7,72.3c-12.6-12-27.5,1.3-27.5,1.3C75,84,84.7,72.3,84.7,72.3z"/>
										</g>
									</g>
									<path id="Path_1303" class="st2" d="M98.2,86.8c-13.7,8.3-22.7-3.2-22.7-3.2C89.9,73.3,98.2,86.8,98.2,86.8z"/>
									<path id="Path_1304" class="st2" d="M97.6,87.3c-14.1-12.4-4.4-26.6-4.4-26.6C109.8,73.2,97.6,87.3,97.6,87.3z"/>
									<g id="Group_855">
										<path id="Path_1305" class="st2" d="M123.7,120.1l1-0.6C103.1,87.2,83.1,71,82.9,70.9l-0.7,0.9
											C82.4,71.9,102.3,88,123.7,120.1z"/>
									</g>
								</g>
								<g id="Group_862">
									<g id="Group_857">
										
											<rect id="Rectangle_1413" x="168.7" y="218.4" transform="matrix(0.9655 -0.2605 0.2605 0.9655 -59.7878 52.8987)" class="st3" width="1.9" height="67.1"/>
									</g>
									<path id="Path_1306" class="st4" d="M121.7,210.1c1.3,2.7,3.3,5,5.9,6.7c6.2,4.3,14.2,5.8,21.7,6.1
										c8.6,0.5,17.2-0.8,25.2-3.9c5.4-2.2,9.7-6,11.4-11.8c1.7-5.8,0.8-12.1-0.6-17.9c-1.7-6.5-3.8-13-6.4-19.2
										c-2.8-7.3-4.7-14.9-5.5-22.7c-0.9-8.2-1.2-16.5-2.2-24.7c-1-7.7-1.9-16-6.6-22.4c-3.1-4.2-7.5-7.3-12.6-8.9
										c-5.9-1.9-12.2-2.3-18.3-1.3c-2.7,0.5-5.4,1.4-7.9,2.6c-9.1,4.5-13.2,13.8-13.9,23.5c-0.7,8.3,0.7,16.9,2.9,25
										c1.7,6.2,3.6,12.4,5.1,18.7c0.6,2.4,1,4.9,1.2,7.3c0.1,3.3-0.1,6.6-0.4,9.8c-0.6,7.8-1.5,15.6-1,23.5
										C119.8,203.9,120.5,207.1,121.7,210.1z"/>
									<g id="Group_858">
										<path id="Path_1307" class="st5" d="M160.7,221.9c8.4-17.8-17.8-94.1-18.1-94.8l1.4-0.5c0.1,0.2,6.8,19.5,12.3,40.9
											c7.5,28.7,9.4,47.3,5.8,55L160.7,221.9z"/>
									</g>
									<g id="Group_859">
										<path id="Path_1308" class="st5" d="M149.6,146.2c5.7-3.4,7-12.8,7-12.9l1.4,0.2c-0.1,0.5-1.4,10.2-7.7,14L149.6,146.2z"
											/>
									</g>
									<g id="Group_860">
										<path id="Path_1309" class="st5" d="M133.8,179.4l1.3-0.6c1.5,2.9,3.5,5.4,5.9,7.6c5.8,5.4,13.2,9,21.1,10.2l-0.2,1.4
											C141,194.6,133.8,179.6,133.8,179.4z"/>
									</g>
									<g id="Group_861">
										<path id="Path_1310" class="st5" d="M158,176.7c3.7-1.3,5.7-6.3,5.7-6.3l1.3,0.5c-0.1,0.2-2.3,5.7-6.6,7.1L158,176.7z"/>
									</g>
								</g>
								<g id="Group_865">
									<g id="Group_863">
										<path id="Path_1311" class="st4" d="M184.4,307.4c-0.8-1.5-1-3.2-1.9-4.6c-1.1-1.9-2-3.8-3-5.7
											c-4-7.1-10.4-11.7-16.7-16.7c-5.4-4.2-11.3-7.8-17.5-10.7c-11.5-5.6-24.2-11.3-36.4-15c-5.4-1.6-10.8-3.9-16.4-4.5
											c-3.9-0.4-7.8-0.7-11.7-1.1c-1.6-0.2-3-0.6-2.8,1.3c0.1,1.6,1.5,3.5,2.1,5c1.1,3,2.1,6.7,4.3,9.2
											c4.8,5.5,8.8,11.4,13.2,17.2c9.1,11.7,20.9,20.9,32.6,29.7c10,7.6,23.1,13.7,35.4,16c8.5,1.5,17-0.2,19.4-10
											C185.6,314.4,186,310.3,184.4,307.4z"/>
										<path id="Path_1312" class="st6" d="M166.3,308.8c5.8,4.2,11.3,8.4,16.4,12.5c0,0,0,0,0,0c0.2,0.1,0.2,0.4,0.1,0.6l0,0
											c-0.1,0.2-0.4,0.2-0.6,0.1c-5.2-4.1-10.8-8.3-16.6-12.6c-1.1,0.5-4.6,1.1-15.1,1.2c-7.4,0-14.7-0.2-14.8-0.2
											c-0.2,0-0.4-0.2-0.4-0.4c0-0.2,0.2-0.4,0.4-0.4c12.6,0.4,26,0.2,29.1-0.8c-7.5-5.5-15.3-11-22.9-16.3
											c-13.5,5.1-28.8,0.2-28.9,0.1c-0.2-0.1-0.3-0.3-0.3-0.5s0.3-0.3,0.5-0.3c0.2,0,14.7,4.8,27.8,0.1
											c-6.7-4.6-13.3-9.1-19.4-13.1c-11.3,3.5-22.3-2.2-22.5-2.3c-0.2-0.1-0.3-0.4-0.2-0.6s0.4-0.3,0.6-0.2
											c0.1,0.1,10.4,5.4,21.1,2.4C103,266.4,89.7,258,89.4,257.9l0,0c-0.2-0.1-0.3-0.4-0.1-0.6c0.1-0.2,0.4-0.3,0.6-0.1
											c0.3,0.2,13.6,8.5,31.3,20.3c-0.5-2.2-2.3-8-8-14.5c-0.2-0.2-0.1-0.4,0-0.6c0.2-0.2,0.4-0.1,0.6,0
											c6.8,7.8,8.2,14.6,8.4,15.8c6.1,4,12.6,8.4,19.3,13c-0.5-3.2-2.7-14.2-8.9-21.1l0,0c-0.1-0.2-0.1-0.4,0.1-0.6
											s0.4-0.1,0.6,0.1c7,7.8,9,20.7,9.2,22.4c7.6,5.3,15.4,10.8,22.9,16.3c-0.8-3.2-5.2-18.9-14.7-28.9l0,0
											c-0.2-0.2-0.1-0.4,0-0.6c0.2-0.2,0.4-0.1,0.6,0c10.7,11.4,15,29.7,15,29.9v0.1L166.3,308.8L166.3,308.8z"/>
									</g>
									<g id="Group_864">
										<path id="Path_1313" class="st2" d="M183.4,287.6c0.3-1.2,1-2.2,1.2-3.4c0.2-1.5,0.7-2.9,1-4.4c1.1-5.5-0.9-10.2-2.5-15.2
											c-1.4-4.2-3.5-8.2-6.2-11.9c-4.9-6.9-10.5-14.2-16.9-20.2c-2.8-2.6-5.3-5.6-8.8-7.8c-1.8-1.1-6.9-5.3-8.9-5
											c-3,0.4-4.1,7.2-4.6,9.5c-1.1,5.2,0,10.8-0.1,16.1c-0.1,9.8,3,19,6.3,27.9c3.1,8.2,8.6,15.3,15.6,20.4
											c5,3.6,11.7,5.2,18.7,0C180.4,292.2,182.9,289.8,183.4,287.6z"/>
										<path id="Path_1314" class="st5" d="M170.1,282.9c1.7,4.3,3.2,8.6,4.5,12.6c0,0.1-0.1,0.3-0.3,0.4l0,0
											c-0.2,0.1-0.4,0-0.4-0.1c-1.3-4.1-2.9-8.3-4.6-12.7c-1,0-3.7-0.7-11-3.9c-5.1-2.2-10.1-4.6-10.1-4.6c0,0-0.1,0-0.1-0.1
											c-0.1-0.1,0-0.2,0.1-0.3c0.1-0.1,0.3-0.2,0.5-0.1c8.4,4.1,17.7,8.1,20.4,8.5c-2.2-5.6-4.5-11.3-6.9-16.8
											c-7.4-0.8-14.4-3.9-19.9-8.9c-0.1-0.1-0.1-0.3,0.1-0.4c0.2-0.1,0.4-0.1,0.5,0c5.3,4.8,11.9,7.8,19,8.6
											c-2.1-4.9-4.2-9.6-6.2-13.9c-5.7-0.7-10.8-3.7-14.2-8.3c-0.1-0.1,0-0.3,0.2-0.4c0.2-0.1,0.4-0.1,0.5,0.1
											c3.2,4.3,7.9,7.2,13.2,8c-5.8-12.6-10.4-21.8-10.5-21.9c-0.1-0.1,0-0.3,0.2-0.4c0.2-0.1,0.4,0,0.5,0.1
											c0.1,0.2,4.7,9.3,10.5,21.9c1.8-3.4,2.7-7.3,2.4-11.2c0-0.2,0.2-0.3,0.4-0.4c0.2,0,0.4,0.1,0.4,0.2
											c0.3,4.2-0.7,8.4-2.9,12c2,4.3,4.1,9,6.2,13.8c1.4-2.1,5.9-9.4,5.4-15.5c0-0.2,0.2-0.3,0.3-0.4c0.2,0,0.4,0.1,0.4,0.2
											c0.6,6.9-5.1,15.2-5.8,16.3c2.4,5.5,4.8,11.2,6.9,16.9c1.2-2.2,6.6-12.9,5.6-21.9c0-0.2,0.2-0.3,0.3-0.4
											c0.2,0,0.4,0,0.4,0.2c1.1,10.1-5.9,22.5-5.9,22.6v0.1l-0.1,0.1L170.1,282.9z"/>
									</g>
								</g>
							</g>
						</g>
					</g>
				</g>
			</g>
		</g>
	</g>
</g>
</svg>
