<?xml version="1.0" encoding="utf-8"?>
<!-- Generator: Adobe Illustrator 25.4.1, SVG Export Plug-In . SVG Version: 6.00 Build 0)  -->
<svg version="1.1" id="圖層_1" xmlns="http://www.w3.org/2000/svg" xmlns:xlink="http://www.w3.org/1999/xlink" x="0px" y="0px"
	 viewBox="0 0 26 28" style="enable-background:new 0 0 26 28;" xml:space="preserve">
<style type="text/css">
	.st0{fill:none;}
	.st1{fill-rule:evenodd;clip-rule:evenodd;fill:#82663F;}
	.st2{fill-rule:evenodd;clip-rule:evenodd;fill:#B1BC00;}
	.st3{clip-path:url(#SVGID_00000060027651800008251390000009854447951411646594_);}
	.st4{fill-rule:evenodd;clip-rule:evenodd;fill:#73871E;}
	.st5{fill-rule:evenodd;clip-rule:evenodd;fill:#FFFFFF;}
	.st6{clip-path:url(#SVGID_00000126316363803376706780000016608740356892036797_);}
	.st7{clip-path:url(#SVGID_00000142868566265677387190000002449747221399754150_);}
	.st8{clip-path:url(#SVGID_00000107579034426953793880000002076437436447420067_);}
</style>
<rect class="st0" width="26" height="28"/>
<g id="Artboard_12">
	<g id="Group_874" transform="translate(-177.265 -1912.038)">
		<path id="Path_939" class="st1" d="M200.2,1921.8c-1.2,1.6-2.3,3.2-3.4,4.8c-1.1,1.6-2,3.3-2.9,4.9c-0.3,0.6-0.6,1.2-0.9,1.7
			c-0.5-1.9-1.2-3.7-1.8-5.5c-0.1-0.3-0.2-0.5-0.3-0.8c0-0.2,0.3-0.5,0.4-0.8c0.5-0.8,0.9-1.6,1.3-2.3c1.3-2.5,2.7-4.8,4.1-7.1
			c-0.1-0.1-0.1-0.2-0.2-0.3c-2,3-3.8,6.1-5.5,9.3c-0.1,0.3-0.2,0.5-0.4,0.8c-1.7-2.1-3.5-4.1-5.2-6.1c-0.9-1-1.7-2-2.6-3
			c-0.5-0.6-1-1.1-1.5-1.7c0,0.1-0.1,0.1-0.1,0.2l0.2,0.3c2.9,3.6,5.7,7.2,8.7,10.7c0.1,0.1,0.2,0.3,0.3,0.4c0.1,0.3,0.2,0.7,0.3,1
			c0.6,2.4,1.2,4.8,1.8,7.1c-2.7-2.3-5.4-4.7-7.9-7.3c-0.5-0.5-1-1.1-1.6-1.6c0,0.1-0.1,0.2-0.1,0.3c1.4,1.6,2.9,3.1,4.4,4.6
			c1.5,1.6,3.2,3.2,4.9,4.7c0.3,0.2,0.5,0.4,0.7,0.7c0.1,0.3,0.2,0.7,0.3,1c0.1,0.4,0.2,0.7,0.3,1c0.4-0.1,0.7-0.2,1.1-0.3
			c-0.3-1-0.6-2-0.9-3c-0.1-0.3-0.2-0.7-0.3-1c0-0.2,0.3-0.6,0.5-0.9c1.2-2.1,2.3-4.1,3.5-6.1c0.7-1.1,1.4-2.2,2.1-3.4
			c0.4-0.6,0.8-1.2,1.1-1.8C200.4,1922,200.3,1921.9,200.2,1921.8z"/>
		<g id="Group_364" transform="matrix(0.978, -0.208, 0.208, 0.978, 180.265, 1914.732)">
			<g id="Group_362" transform="translate(0)">
				<path id="Path_940" class="st2" d="M0.3,0c1.2,0.4,2.2,1.1,3.1,1.9c0.9,0.8,1.7,1.7,2.3,2.8c1.3,2.6,1.8,5.6,1.4,8.5
					c-1.2-0.4-2.3-1-3.3-1.9c-0.9-0.8-1.7-1.7-2.3-2.8C0.1,5.9-0.3,3,0.3,0C0.2,0,0.2,0,0.3,0z"/>
				<g id="Group_361">
					<g>
						<defs>
							<path id="SVGID_1_" d="M0.3,0c1.2,0.4,2.2,1.1,3.1,1.9c0.9,0.8,1.7,1.7,2.3,2.8c1.3,2.6,1.8,5.6,1.4,8.5
								c-1.2-0.4-2.3-1-3.3-1.9c-0.9-0.8-1.7-1.7-2.3-2.8C0.1,5.9-0.3,3,0.3,0C0.2,0,0.2,0,0.3,0z"/>
						</defs>
						<clipPath id="SVGID_00000005975656445301997240000001674599341815025569_">
							<use xlink:href="#SVGID_1_"  style="overflow:visible;"/>
						</clipPath>
						<g id="Group_360" style="clip-path:url(#SVGID_00000005975656445301997240000001674599341815025569_);">
							<path id="Path_941" class="st1" d="M0-0.5L0-0.5c0.3,0.3,0.4,0.6,0.6,0.9C1,1.3,1.6,2.1,2,3C2.7,4.2,3.3,5.3,4,6.5
								c1.3,2.3,2.6,4.7,3.8,7.1c0.2-0.2,0.4-0.4,0.6-0.7c2.6-3.2,5.3-6.1,8.3-8.9c0.1-0.1,0.2-0.2,0.3-0.3c0.1-0.1,0.2-0.2,0.3-0.2
								C17.2,3.8,17,4,16.8,4.2c-2.2,2.4-4.4,4.7-6.5,7.2c-0.5,0.6-1.1,1.3-1.7,2C8.4,13.7,8,14,8,14.1C8,14.4,8,14.7,8,15
								c0.2,1.9,0.4,3.9,0.6,5.8c0.4-0.4,0.8-0.9,1.2-1.4c1.2-1.4,2.5-2.9,3.9-4.2c1.7-1.7,3.5-3.3,5.3-4.8c0.1-0.1,0.2-0.3,0.3-0.2
								c0.1,0.2-0.1,0.3-0.2,0.4c-0.8,0.8-1.6,1.6-2.4,2.5c-0.9,0.9-1.8,1.9-2.8,2.8c-1.6,1.7-3.1,3.5-4.6,5.2
								c-0.2,0.2-0.6,0.6-0.6,0.8c0,0.3,0,0.7,0.1,1c0.1,1,0.2,2.1,0.2,3.1c-0.4,0-0.7,0.1-1.1,0.1c0-0.3,0-0.7,0-1.1
								c0-0.4,0-0.7-0.1-1.1c-0.2-0.3-0.3-0.6-0.6-0.8c-1.3-1.8-2.6-3.7-3.8-5.6c-1.3-2.1-2.7-4.1-3.8-6.3c-0.1-0.1-0.2-0.3-0.1-0.4
								c0.1,0,0.2,0.2,0.3,0.3c0.6,0.8,1.1,1.8,1.7,2.7c1.9,3,4,6,6.2,8.8c-0.1-2.4-0.2-4.9-0.3-7.3c0-0.3,0-0.7-0.1-1
								c-0.1-0.2-0.1-0.3-0.2-0.5C5,9.6,3,5.6,0.9,1.4C0.7,1.1,0.6,0.8,0.4,0.5C0.3,0.2,0.1-0.1,0-0.5L0-0.5z"/>
						</g>
					</g>
				</g>
			</g>
			<g id="Group_363" transform="translate(1.358 1.904)">
				<path id="Path_943" class="st4" d="M3.9,3.9C3.7,3.8,3.6,3.6,3.5,3.4C3.4,3.3,3.3,3,3.3,2.8c0,0,0.1,0,0.1-0.1
					c0.2,0.1,0.4,0.3,0.5,0.6C4,3.5,4.1,3.8,3.9,3.9z"/>
				<path id="Path_944" class="st5" d="M4.2,4.3c0.2,0,0.2,0.2,0.3,0.4c0.1,0.2,0.2,0.3,0.1,0.5c-0.2,0-0.2-0.2-0.3-0.4
					C4.3,4.6,4.1,4.4,4.2,4.3z"/>
				<path id="Path_945" class="st5" d="M0.6,5.9C0.4,5.8,0.3,5.6,0.2,5.3C0.1,5.1,0,4.9,0,4.6c0.2-0.3,0.4,0.2,0.5,0.5
					C0.7,5.4,0.8,5.8,0.6,5.9z"/>
				<path id="Path_946" class="st4" d="M1.6,7.3C1.4,7.4,1.3,7.2,1.2,7C1.1,6.8,0.9,6.5,1.1,6.4C1.3,6.4,1.6,7.1,1.6,7.3z"/>
				<path id="Path_947" class="st5" d="M1.4,0.9C1.3,1,1.1,0.8,1,0.6C0.9,0.4,0.7,0.1,1,0C1.2,0,1.4,0.6,1.4,0.9z"/>
			</g>
		</g>
		<g id="Group_369" transform="matrix(0.978, -0.208, 0.208, 0.978, 189.144, 1916.968)">
			<g id="Group_367" transform="translate(0 0)">
				<path id="Path_948" class="st2" d="M8.6,0C8.6,0,8.6,0,8.6,0C8.3,2.4,7.2,4.6,5.7,6.4C4.1,7.9,2.2,9.1,0,9.7
					c0.3-2.4,1.3-4.6,2.9-6.4C4.5,1.8,6.4,0.7,8.6,0C8.6,0,8.6,0,8.6,0z"/>
				<g id="Group_366">
					<g>
						<defs>
							<path id="SVGID_00000013178044959372455900000008323071373929672104_" d="M8.6,0C8.6,0,8.6,0,8.6,0C8.3,2.4,7.2,4.6,5.7,6.4
								C4.1,7.9,2.2,9.1,0,9.7c0.3-2.4,1.3-4.6,2.9-6.4C4.5,1.8,6.4,0.7,8.6,0C8.6,0,8.6,0,8.6,0z"/>
						</defs>
						<clipPath id="SVGID_00000111152068556106837880000012587449327248318875_">
							<use xlink:href="#SVGID_00000013178044959372455900000008323071373929672104_"  style="overflow:visible;"/>
						</clipPath>
						<g id="Group_365" style="clip-path:url(#SVGID_00000111152068556106837880000012587449327248318875_);">
							<path id="Path_949" class="st1" d="M-8.2-4.6L-8.2-4.6C-7.9-4.3-7.8-4-7.6-3.7c0.5,0.9,1,1.7,1.5,2.6
								c0.7,1.2,1.3,2.3,1.9,3.5C-3,4.8-1.6,7.1-0.4,9.6C-0.2,9.4,0,9.1,0.1,8.9C2.7,5.7,5.5,2.8,8.4,0c0.1-0.1,0.2-0.2,0.3-0.3
								c0.1-0.1,0.2-0.2,0.3-0.2C9-0.2,8.8,0,8.6,0.2C6.4,2.6,4.2,4.9,2,7.4C1.5,8,0.9,8.8,0.3,9.4c-0.2,0.2-0.5,0.5-0.6,0.6
								c0,0.3,0,0.6,0.1,0.8c0.2,1.9,0.4,3.9,0.6,5.8c0.4-0.4,0.8-0.9,1.2-1.4c1.2-1.4,2.5-2.9,3.9-4.2C7.2,9.4,9,7.8,10.8,6.2
								C10.9,6.1,11,5.9,11.2,6c0.1,0.2-0.1,0.3-0.2,0.4C10.2,7.2,9.3,8,8.6,8.9c-0.9,0.9-1.8,1.9-2.8,2.8c-1.6,1.7-3.1,3.5-4.6,5.2
								c-0.2,0.2-0.6,0.6-0.6,0.8c0,0.3,0,0.7,0.1,1c0.1,1,0.2,2.1,0.2,3.1c-0.4,0-0.7,0.1-1.1,0.1c0-0.3,0-0.7,0-1.1
								c0-0.4,0-0.7-0.1-1.1c-0.2-0.3-0.3-0.6-0.6-0.8c-1.3-1.8-2.6-3.7-3.8-5.6c-1.3-2.1-2.7-4.1-3.8-6.3c-0.1-0.1-0.2-0.3-0.1-0.4
								c0.1,0,0.2,0.2,0.3,0.3c0.6,0.8,1.1,1.8,1.7,2.7c1.9,3,4,6,6.2,8.8c-0.1-2.4-0.2-4.9-0.3-7.3c0-0.3,0-0.7-0.1-1
								C-0.9,9.9-1,9.8-1.1,9.6c-2.2-4-4.2-8.1-6.3-12.2c-0.1-0.3-0.3-0.6-0.4-0.9C-7.9-3.8-8.1-4.1-8.2-4.6L-8.2-4.6z"/>
						</g>
					</g>
				</g>
			</g>
			<g id="Group_368" transform="translate(2.111 2.162)">
				<path id="Path_951" class="st5" d="M3.4,0c0,0.3-0.3,0.4-0.4,0.5S2.7,0.9,2.4,0.9C2.3,0.7,2.5,0.5,2.7,0.3
					C2.9,0.1,3.1-0.1,3.4,0z"/>
				<path id="Path_952" class="st4" d="M1.1,2c0-0.2,0.2-0.3,0.3-0.4C1.4,1.5,1.9,1.1,2,1.4c0,0.2-0.2,0.3-0.4,0.4
					C1.4,2,1.2,2.1,1.1,2z"/>
				<path id="Path_953" class="st4" d="M3,3.7C2.9,4.1,2.6,4.4,2.2,4.4c0,0,0-0.1-0.1-0.1C2.1,4,2.8,3.3,3,3.7z"/>
				<path id="Path_954" class="st5" d="M1.1,5.2c0,0.2-0.3,0.4-0.4,0.5C0.5,5.8,0.2,6,0,5.8C0,5.5,0.8,4.8,1.1,5.2z"/>
			</g>
		</g>
		<g id="Group_374" transform="matrix(0.978, -0.208, 0.208, 0.978, 191.156, 1922.982)">
			<g id="Group_372" transform="translate(0 0)">
				<path id="Path_955" class="st2" d="M10.1,0c0.1,0,0,0.2,0,0.3C9.9,1.6,9.5,2.8,8.9,4C8.1,5.7,6.8,7.2,5.3,8.3
					C3.8,9.5,2,10.3,0,10.6c0.2-2.7,1.4-5.2,3.3-7.2C5.2,1.6,7.5,0.4,10.1,0L10.1,0z"/>
				<g id="Group_371">
					<g>
						<defs>
							<path id="SVGID_00000132798725855172186190000007888080117858094212_" d="M10.1,0c0.1,0,0,0.2,0,0.3C9.9,1.6,9.5,2.8,8.9,4
								C8.1,5.7,6.8,7.2,5.3,8.3C3.8,9.5,2,10.3,0,10.6c0.2-2.7,1.4-5.2,3.3-7.2C5.2,1.6,7.5,0.4,10.1,0L10.1,0z"/>
						</defs>
						<clipPath id="SVGID_00000048497983109338444420000010831055687233782443_">
							<use xlink:href="#SVGID_00000132798725855172186190000007888080117858094212_"  style="overflow:visible;"/>
						</clipPath>
						<g id="Group_370" style="clip-path:url(#SVGID_00000048497983109338444420000010831055687233782443_);">
							<path id="Path_956" class="st1" d="M-8.9-10.9L-8.9-10.9c0.3,0.3,0.4,0.6,0.6,0.9c0.5,0.9,1,1.7,1.5,2.6
								C-6.2-6.2-5.6-5-5-3.8c1.3,2.3,2.6,4.7,3.8,7.1c0.2-0.2,0.4-0.4,0.6-0.7C2-0.6,4.7-3.5,7.7-6.3C7.8-6.4,7.9-6.5,8-6.6
								c0.1-0.1,0.2-0.2,0.3-0.2C8.2-6.5,8.1-6.3,7.8-6.1C5.7-3.7,3.5-1.4,1.3,1.1c-0.5,0.6-1.1,1.3-1.7,2C-0.6,3.3-0.9,3.6-1,3.8
								c0,0.3,0,0.6,0.1,0.8c0.2,1.9,0.4,3.9,0.6,5.8C0.1,10,0.5,9.5,0.9,9c1.2-1.4,2.5-2.9,3.9-4.2c1.7-1.7,3.5-3.3,5.3-4.8
								c0.1-0.1,0.2-0.3,0.3-0.2c0.1,0.2-0.1,0.3-0.2,0.4C9.5,0.9,8.6,1.7,7.8,2.6C6.9,3.5,6,4.4,5.1,5.4C3.5,7.1,2,8.9,0.4,10.7
								c-0.2,0.2-0.6,0.6-0.6,0.8c0,0.3,0,0.7,0.1,1c0.1,1,0.2,2.1,0.2,3.1c-0.4,0-0.7,0.1-1.1,0.1c0-0.3,0-0.7,0-1.1
								c0-0.4,0-0.7-0.1-1.1c-0.2-0.3-0.3-0.6-0.6-0.8C-3,10.9-4.3,9-5.5,7.2c-1.3-2.1-2.7-4.1-3.8-6.3c-0.1-0.1-0.2-0.3-0.1-0.4
								c0.1,0,0.2,0.2,0.3,0.3C-8.6,1.6-8,2.5-7.4,3.4c1.9,3,4,6,6.2,8.8c-0.1-2.4-0.2-4.9-0.3-7.3c0-0.3,0-0.7-0.1-1
								c-0.1-0.2-0.1-0.3-0.2-0.5C-4-0.7-6-4.8-8-8.9c-0.1-0.3-0.3-0.6-0.4-0.9C-8.7-10.1-8.8-10.4-8.9-10.9L-8.9-10.9z"/>
						</g>
					</g>
				</g>
			</g>
			<g id="Group_373" transform="translate(2.1 2.439)">
				<path id="Path_958" class="st5" d="M7.1,0.1c0,0.2,0,0.5-0.2,0.7C6.8,0.9,6.7,1.2,6.5,1.2C6.2,1.1,6.7,0.2,6.9,0
					C6.9,0,7,0,7.1,0.1z"/>
				<path id="Path_959" class="st4" d="M2,1.4C2,1.7,1.9,1.9,1.6,2C1.5,2.2,1.3,2.4,1,2.4c0,0,0-0.1-0.1-0.1c0-0.2,0.1-0.3,0.2-0.5
					C1.4,1.5,1.7,1.2,2,1.4C2,1.4,2,1.4,2,1.4z"/>
				<path id="Path_960" class="st4" d="M6.3,1.9C6.2,2.1,6.1,2.4,5.8,2.4c0,0-0.1-0.1-0.1-0.1C5.7,2,6,1.5,6.3,1.9z"/>
				<path id="Path_961" class="st5" d="M0.7,2.9C0.7,3.3,0.4,3.7,0,3.6C-0.1,3.4,0.2,3,0.4,2.8C0.5,2.8,0.6,2.8,0.7,2.9z"/>
			</g>
		</g>
		<g id="Group_379" transform="matrix(0.978, -0.208, 0.208, 0.978, 182.12, 1925.583)">
			<g id="Group_377" transform="translate(0 0)">
				<path id="Path_962" class="st2" d="M0,0c2.3,0.4,4.3,1.9,5.4,4c1.3,2.2,1.9,4.7,1.9,7.3c-2.2-0.7-4-2.1-5.3-4
					C0.6,5.1-0.1,2.6,0,0C0,0,0,0,0,0z"/>
				<g id="Group_376">
					<g>
						<defs>
							<path id="SVGID_00000110438534091647676460000000067151780942096011_" d="M0,0c2.3,0.4,4.3,1.9,5.4,4
								c1.3,2.2,1.9,4.7,1.9,7.3c-2.2-0.7-4-2.1-5.3-4C0.6,5.1-0.1,2.6,0,0C0,0,0,0,0,0z"/>
						</defs>
						<clipPath id="SVGID_00000093174861654593747100000014399413896329327506_">
							<use xlink:href="#SVGID_00000110438534091647676460000000067151780942096011_"  style="overflow:visible;"/>
						</clipPath>
						<g id="Group_375" style="clip-path:url(#SVGID_00000093174861654593747100000014399413896329327506_);">
							<path id="Path_963" class="st1" d="M0.5-11.5L0.5-11.5c0.3,0.3,0.4,0.6,0.6,0.9C1.5-9.7,2-8.9,2.5-8c0.7,1.2,1.3,2.3,1.9,3.5
								C5.7-2.1,7,0.2,8.2,2.6c0.2-0.2,0.4-0.4,0.6-0.7c2.6-3.2,5.3-6.1,8.3-8.9c0.1-0.1,0.2-0.2,0.3-0.3c0.1-0.1,0.2-0.2,0.3-0.2
								c-0.1,0.3-0.3,0.5-0.5,0.7c-2.2,2.4-4.4,4.7-6.5,7.2c-0.5,0.6-1.1,1.3-1.7,2C8.8,2.7,8.4,3,8.4,3.1c0,0.3,0,0.6,0.1,0.8
								c0.2,1.9,0.4,3.9,0.6,5.8c0.4-0.4,0.8-0.9,1.2-1.4c1.2-1.4,2.5-2.9,3.9-4.2c1.7-1.7,3.5-3.3,5.3-4.8c0.1-0.1,0.2-0.3,0.3-0.2
								c0.1,0.2-0.1,0.3-0.2,0.4c-0.8,0.8-1.6,1.6-2.4,2.5c-0.9,0.9-1.8,1.9-2.8,2.8c-1.6,1.7-3.1,3.5-4.6,5.2
								c-0.2,0.2-0.6,0.6-0.6,0.8c0,0.3,0,0.7,0.1,1c0.1,1,0.2,2.1,0.2,3.1c-0.4,0-0.7,0.1-1.1,0.1c0-0.3,0-0.7,0-1.1
								c0-0.4,0-0.7-0.1-1.1c-0.2-0.3-0.3-0.6-0.6-0.8c-1.3-1.8-2.6-3.7-3.8-5.6C2.6,4.4,1.2,2.4,0.1,0.2C0,0.1-0.1-0.1,0-0.2
								c0.1,0,0.2,0.2,0.3,0.3C0.8,0.9,1.4,1.9,2,2.7c1.9,3,4,6,6.2,8.8C8,9.1,8,6.6,7.9,4.2c0-0.3,0-0.7-0.1-1
								C7.8,3,7.7,2.8,7.6,2.7c-2.2-4-4.2-8.1-6.3-12.2C1.2-9.9,1-10.2,0.9-10.5C0.7-10.8,0.6-11.1,0.5-11.5L0.5-11.5z"/>
						</g>
					</g>
				</g>
			</g>
			<g id="Group_378" transform="translate(2.735 1.889)">
				<path id="Path_965" class="st5" d="M1,1.3C0.7,1.4,0.4,0.8,0.2,0.5C0,0.3,0,0.3,0,0.1C0.1,0,0.1,0,0.2,0C0.6,0.1,1.2,0.8,1,1.3z
					"/>
				<path id="Path_966" class="st4" d="M1.6,1.8C1.9,1.5,2.1,2,2.2,2.3C2.3,2.5,2.6,3,2.3,3C2.1,3.1,1.9,2.7,1.8,2.5
					C1.7,2.3,1.6,2,1.6,1.8z"/>
				<path id="Path_967" class="st4" d="M1,6.4C1,6.4,1,6.4,1,6.4C0.8,6.4,0.6,6.2,0.5,6S0.1,5.7,0.2,5.4c0.3-0.3,0.5,0.2,0.7,0.4
					C1,6,1.2,6.3,1,6.4z"/>
				<path id="Path_968" class="st5" d="M2.2,7.5c0,0-0.1,0.1-0.1,0.1C2,7.6,1.5,7.4,1.5,7.2C1.5,6.8,2.3,7.2,2.2,7.5z"/>
			</g>
		</g>
	</g>
</g>
</svg>
