<?xml version="1.0" encoding="utf-8"?>
<!-- Generator: Adobe Illustrator 25.4.1, SVG Export Plug-In . SVG Version: 6.00 Build 0)  -->
<svg version="1.1" id="圖層_1" xmlns="http://www.w3.org/2000/svg" xmlns:xlink="http://www.w3.org/1999/xlink" x="0px" y="0px"
	 viewBox="0 0 80 80" style="enable-background:new 0 0 80 80;" xml:space="preserve">
<style type="text/css">
	.st0{clip-path:url(#SVGID_00000051377710845020422130000017781104588336559517_);}
	.st1{fill:#0FA36C;}
</style>
<g>
	<defs>
		<rect id="SVGID_1_" y="0.3" width="80" height="79.3"/>
	</defs>
	<clipPath id="SVGID_00000004508660224194370020000004553340509265086893_">
		<use xlink:href="#SVGID_1_"  style="overflow:visible;"/>
	</clipPath>
	<g id="Artboard_24" style="clip-path:url(#SVGID_00000004508660224194370020000004553340509265086893_);">
		<g id="Group_899">
			<g id="Path_1342">
				<path class="st1" d="M41.3,4.4C21.7,4.4,5.7,20.3,5.7,39.9c0,14.3,8.5,27.2,21.7,32.8c12.3,5.2,26.6,3,36.8-5.7
					c1.9-1.7,3.7-3.5,5.2-5.5s2.9-4.2,3.9-6.5c1.1-2.3,1.9-4.7,2.5-7.3c4.5-19.1-7.5-38.1-26.7-42.5C46.6,4.7,44,4.4,41.3,4.4
					 M41.3,1.7c21.1,0,38.3,17.1,38.3,38.3S62.5,78.3,41.3,78.3S3,61.1,3,40S20.1,1.7,41.3,1.7z"/>
			</g>
			<g id="Group_899-2">
				<path id="Path_1094" class="st1" d="M11.1,39.4h6.8v18.1c0,0.7,0.5,1.2,1.2,1.2h30.5c0.7,0,1.2-0.5,1.2-1.2l0,0V44.7
					c0.1-0.7-0.5-1.2-1.1-1.3c-0.7-0.1-1.2,0.5-1.3,1.1c0,0.1,0,0.1,0,0.2v11.7h-9.5V55c0-0.7-0.5-1.2-1.2-1.2l0,0l0,0
					c-0.7,0-1.2,0.5-1.2,1.2l0,0v1.3H32V48c0-1.3,1-2.3,2.3-2.3s2.3,1,2.3,2.3c0,0.7,0.5,1.2,1.2,1.2l0,0l0,0c0.7,0,1.2-0.5,1.2-1.2
					l0,0l0,0c0-2.6-2.1-4.7-4.7-4.7s-4.7,2.1-4.7,4.7v8.2h-9.4V39.4h26.1c0.7-0.1,1.1-0.6,1.1-1.3c-0.1-0.6-0.5-1.1-1.1-1.1h-32
					l20.1-17.6l10.3,8.9c0.5,0.4,1.3,0.4,1.7-0.1l0,0l0,0c0.4-0.5,0.4-1.3-0.1-1.7L35.2,17c-0.5-0.4-1.1-0.4-1.6,0L10.4,37.3
					c-0.5,0.4-0.5,1.2-0.1,1.7C10.5,39.3,10.8,39.4,11.1,39.4L11.1,39.4z"/>
				<path id="Path_1095" class="st1" d="M48.5,31.7c0.5,0.4,1.3,0.3,1.7-0.2s0.3-1.2-0.1-1.6l-0.8-0.7c-0.5-0.4-1.3-0.4-1.7,0.1l0,0
					c-0.4,0.5-0.4,1.3,0.1,1.7L48.5,31.7z"/>
				<path id="Path_1096" class="st1" d="M71,33.7c0.3-1.9-0.7-3.9-2.4-4.8c0.3-1.5-0.3-3.1-1.4-4.3c-0.5-0.5-1.2-0.5-1.7-0.1
					C65,25,65,25.7,65.4,26.2l0.1,0.1c0.7,0.7,0.9,1.7,0.5,2.6c0,0.1-0.1,0.1-0.1,0.2c-0.3,0.6,0,1.3,0.6,1.6
					c0.1,0.1,0.2,0.1,0.3,0.1c0.1,0,0.3,0.1,0.4,0.1c1.1,0.5,1.6,1.8,1.2,2.9v0.1c-0.3,0.6,0.1,1.3,0.7,1.5c0.1,0,0.1,0,0.1,0.1
					l0.2,0.1c1.1,0.5,1.6,1.9,1.2,3c-0.2,0.7-0.7,1.2-1.4,1.4c-0.5,0.1-0.9,0.5-0.9,1.1c0,0.3-0.1,0.5-0.1,0.7
					c-0.2,0.6-0.6,1-1.2,1.3c-0.5,0.2-0.9,0.2-1.4,0s-0.9-0.1-1.3,0.3c-1.7,1.9-4.5,2-6.3,0.4c-0.1-0.1-0.3-0.3-0.4-0.4
					c-0.3-0.3-0.9-0.5-1.3-0.3c-0.5,0.2-0.9,0.2-1.4,0c-0.5-0.3-1-0.7-1.2-1.3c-0.1-0.2-0.1-0.5-0.1-0.7c0-0.5-0.4-0.9-0.9-1.1
					c-0.7-0.2-1.2-0.7-1.4-1.4c-0.5-1.1,0.1-2.5,1.2-3l0.2-0.1c0.6-0.2,1-0.8,0.9-1.5c0-0.1,0-0.1-0.1-0.1v-0.1
					c-0.4-1.1,0.1-2.4,1.1-2.9c0.1-0.1,0.3-0.1,0.4-0.1c0.7-0.1,1.1-0.7,0.9-1.4c0-0.1-0.1-0.2-0.1-0.3c0-0.1-0.1-0.1-0.1-0.2
					c-0.5-1.1,0.1-2.5,1.2-3c0.3-0.1,0.5-0.1,0.9-0.1c0.7,0.1,1.2-0.4,1.3-1.1l0,0c0.1-0.7-0.4-1.3-1.1-1.3c-0.7-0.1-1.3,0.1-2,0.3
					c-2,0.9-3.1,3-2.7,5.1c-1.7,0.9-2.7,2.9-2.4,4.8c-1.9,1.2-2.7,3.6-1.9,5.7c0.4,1.1,1.2,2.1,2.3,2.6c0.1,0.2,0.1,0.4,0.1,0.5
					c0.4,1.2,1.3,2.1,2.4,2.7c0.8,0.3,1.7,0.5,2.5,0.3c0.9,0.8,2.1,1.4,3.3,1.6v9.2h-2.4c-0.7,0.1-1.1,0.6-1.1,1.3
					c0.1,0.6,0.5,1.1,1.1,1.1h7.3c0.7,0,1.2-0.5,1.2-1.2l0,0c0-0.7-0.5-1.2-1.2-1.2H62v-9c1.2-0.3,2.4-0.8,3.3-1.6
					c0.9,0.2,1.7,0.1,2.5-0.3c1.1-0.5,2-1.5,2.4-2.7c0.1-0.2,0.1-0.4,0.1-0.5c1.1-0.5,1.9-1.5,2.3-2.6C73.7,37.3,72.9,34.9,71,33.7z
					"/>
				<path id="Path_1097" class="st1" d="M61.1,24.5c0.5,0,0.9,0.3,1.1,0.7c0.2,0.4,0.6,0.7,1.1,0.7c0.2,0,0.3-0.1,0.5-0.1
					c0.6-0.3,0.9-1,0.6-1.5l0,0l0,0c-0.5-1.3-1.8-2.1-3.2-2.1c-0.7-0.1-1.2,0.5-1.3,1.1c-0.1,0.7,0.5,1.2,1.1,1.3
					C60.9,24.5,61,24.5,61.1,24.5z"/>
				<path id="Path_1098" class="st1" d="M65.8,39.9c0.1,0.1,0.3,0.1,0.4,0.1c0.5,0,0.9-0.3,1.1-0.8c0.6-1.7-0.2-3.7-1.9-4.5
					c-0.6-0.3-1.3-0.1-1.6,0.5c-0.3,0.6-0.1,1.3,0.5,1.6c0.1,0,0.1,0.1,0.1,0.1l0,0c0.5,0.3,0.8,0.9,0.5,1.5
					C64.9,39,65.2,39.7,65.8,39.9z"/>
				<path id="Path_1099" class="st1" d="M57.2,33.5c0.2,0.5,0.6,0.8,1.1,0.8c0.1,0,0.3,0,0.4-0.1c0.6-0.2,0.9-0.9,0.7-1.5l0,0
					c-0.2-0.5,0-1.2,0.5-1.5c0.6-0.3,0.9-0.9,0.7-1.5l0,0c-0.3-0.6-0.9-0.9-1.5-0.7l0,0C57.3,29.8,56.5,31.7,57.2,33.5z"/>
				<path id="Path_1100" class="st1" d="M37.9,50.2c-0.7,0-1.2,0.5-1.2,1.2v0.5c0.1,0.7,0.6,1.1,1.3,1.1c0.6-0.1,1.1-0.5,1.1-1.1
					v-0.4C39.1,50.7,38.5,50.2,37.9,50.2L37.9,50.2z"/>
				<path id="Path_1101" class="st1" d="M13.4,62.1c-0.7,0.1-1.1,0.6-1.1,1.3c0.1,0.6,0.5,1.1,1.1,1.1h24.9c0.7,0,1.2-0.5,1.2-1.2
					l0,0c0-0.7-0.5-1.2-1.2-1.2H13.4z"/>
				<path id="Path_1102" class="st1" d="M42.8,62.1c-0.7-0.1-1.2,0.5-1.3,1.1c-0.1,0.7,0.5,1.2,1.1,1.3c0.1,0,0.1,0,0.2,0h1.7
					c0.7,0,1.2-0.5,1.2-1.2l0,0c0-0.7-0.5-1.2-1.2-1.2H42.8z"/>
				<path id="Path_1103" class="st1" d="M69.8,62.1H50.5c-0.7,0.1-1.1,0.6-1.1,1.3c0.1,0.6,0.5,1.1,1.1,1.1h19.3
					c0.7,0,1.2-0.5,1.2-1.2l0,0C70.9,62.6,70.4,62.1,69.8,62.1z"/>
			</g>
		</g>
	</g>
</g>
</svg>
